%TF.GenerationSoftware,KiCad,Pcbnew,5.1.10-88a1d61d58~88~ubuntu18.04.1*%
%TF.CreationDate,2021-10-12T23:30:59-03:00*%
%TF.ProjectId,ConversorDCDC,436f6e76-6572-4736-9f72-444344432e6b,1.0*%
%TF.SameCoordinates,Original*%
%TF.FileFunction,Copper,L2,Bot*%
%TF.FilePolarity,Positive*%
%FSLAX46Y46*%
G04 Gerber Fmt 4.6, Leading zero omitted, Abs format (unit mm)*
G04 Created by KiCad (PCBNEW 5.1.10-88a1d61d58~88~ubuntu18.04.1) date 2021-10-12 23:30:59*
%MOMM*%
%LPD*%
G01*
G04 APERTURE LIST*
%TA.AperFunction,Profile*%
%ADD10C,0.050000*%
%TD*%
%TA.AperFunction,ComponentPad*%
%ADD11C,2.600000*%
%TD*%
%TA.AperFunction,ConnectorPad*%
%ADD12C,3.500000*%
%TD*%
%TA.AperFunction,ComponentPad*%
%ADD13C,0.500000*%
%TD*%
%TA.AperFunction,SMDPad,CuDef*%
%ADD14R,2.700000X2.700000*%
%TD*%
%TA.AperFunction,ComponentPad*%
%ADD15O,2.000000X1.700000*%
%TD*%
%TA.AperFunction,ComponentPad*%
%ADD16R,1.700000X1.700000*%
%TD*%
%TA.AperFunction,ComponentPad*%
%ADD17O,1.700000X1.700000*%
%TD*%
%TA.AperFunction,ComponentPad*%
%ADD18C,3.500000*%
%TD*%
%TA.AperFunction,ComponentPad*%
%ADD19R,1.524000X1.524000*%
%TD*%
%TA.AperFunction,ComponentPad*%
%ADD20C,1.524000*%
%TD*%
%TA.AperFunction,ViaPad*%
%ADD21C,0.800000*%
%TD*%
%TA.AperFunction,ViaPad*%
%ADD22C,1.600000*%
%TD*%
%TA.AperFunction,Conductor*%
%ADD23C,0.300000*%
%TD*%
%TA.AperFunction,Conductor*%
%ADD24C,0.200000*%
%TD*%
%TA.AperFunction,Conductor*%
%ADD25C,0.100000*%
%TD*%
G04 APERTURE END LIST*
D10*
X80000000Y-126500000D02*
X80000000Y-98500000D01*
X114500000Y-126500000D02*
X80000000Y-126500000D01*
X114500000Y-98500000D02*
X114500000Y-126500000D01*
X80000000Y-98500000D02*
X114500000Y-98500000D01*
D11*
%TO.P,H1,1*%
%TO.N,N/C*%
X83000000Y-102500000D03*
D12*
X83000000Y-102500000D03*
%TD*%
D13*
%TO.P,U1,17*%
%TO.N,Net-(U1-Pad17)*%
X96850000Y-115600000D03*
X95750000Y-115600000D03*
X94650000Y-115600000D03*
X96850000Y-114500000D03*
X95750000Y-114500000D03*
X94650000Y-114500000D03*
X96850000Y-113400000D03*
X95750000Y-113400000D03*
X94650000Y-113400000D03*
D14*
X95750000Y-114500000D03*
%TD*%
%TO.P,X2,1*%
%TO.N,GND*%
%TA.AperFunction,ComponentPad*%
G36*
G01*
X87750000Y-113850000D02*
X86250000Y-113850000D01*
G75*
G02*
X86000000Y-113600000I0J250000D01*
G01*
X86000000Y-112400000D01*
G75*
G02*
X86250000Y-112150000I250000J0D01*
G01*
X87750000Y-112150000D01*
G75*
G02*
X88000000Y-112400000I0J-250000D01*
G01*
X88000000Y-113600000D01*
G75*
G02*
X87750000Y-113850000I-250000J0D01*
G01*
G37*
%TD.AperFunction*%
D15*
%TO.P,X2,2*%
%TO.N,+BATT*%
X87000000Y-110500000D03*
%TD*%
D12*
%TO.P,H2,1*%
%TO.N,N/C*%
X83000000Y-120500000D03*
D11*
X83000000Y-120500000D03*
%TD*%
D16*
%TO.P,JP1,1*%
%TO.N,+BATT*%
X87000000Y-101000000D03*
D17*
%TO.P,JP1,2*%
%TO.N,GND*%
X89540000Y-101000000D03*
%TO.P,JP1,3*%
%TO.N,/ENABLE*%
X92080000Y-101000000D03*
%TO.P,JP1,4*%
%TO.N,/LBO*%
X94620000Y-101000000D03*
%TO.P,JP1,5*%
%TO.N,GND*%
X97160000Y-101000000D03*
%TO.P,JP1,6*%
%TO.N,+5V*%
X99700000Y-101000000D03*
%TD*%
D18*
%TO.P,CN1,5*%
%TO.N,GND*%
X106960000Y-104430000D03*
X106960000Y-117570000D03*
D19*
%TO.P,CN1,1*%
%TO.N,+5V*%
X104250000Y-114500000D03*
D20*
%TO.P,CN1,2*%
%TO.N,Net-(CN1-Pad2)*%
X104250000Y-112000000D03*
%TO.P,CN1,3*%
%TO.N,Net-(CN1-Pad3)*%
X104250000Y-110000000D03*
%TO.P,CN1,4*%
%TO.N,GND*%
X104250000Y-107500000D03*
%TD*%
D21*
%TO.N,GND*%
X99250000Y-121750000D03*
X102750000Y-121750000D03*
X92750000Y-113000000D03*
X94655331Y-109844669D03*
X106960000Y-111540000D03*
X106960000Y-108040000D03*
D22*
%TO.N,+5V*%
X103662500Y-120600000D03*
X103137999Y-102862001D03*
D21*
%TO.N,/ENABLE*%
X91912500Y-118912500D03*
X91500000Y-103250000D03*
X92500000Y-115500000D03*
%TO.N,/LBO*%
X94500000Y-102750000D03*
X91500000Y-120750000D03*
%TO.N,Net-(R3-Pad2)*%
X96250000Y-118000000D03*
X93500000Y-121500000D03*
%TD*%
D23*
%TO.N,GND*%
X99250000Y-121750000D02*
X102750000Y-121750000D01*
X92750000Y-113000000D02*
X92750000Y-111750000D01*
X92750000Y-111750000D02*
X94500000Y-110000000D01*
X94500000Y-110000000D02*
X94655331Y-109844669D01*
X106960000Y-111540000D02*
X106960000Y-108040000D01*
%TO.N,+5V*%
X103137999Y-120075499D02*
X103137999Y-102862001D01*
X103662500Y-120600000D02*
X103137999Y-120075499D01*
X103137999Y-102862001D02*
X103137999Y-102862001D01*
%TO.N,/ENABLE*%
X91912500Y-118912500D02*
X91662500Y-118912500D01*
X91662500Y-118912500D02*
X91500000Y-118750000D01*
X91500000Y-115500000D02*
X91500000Y-103250000D01*
X91500000Y-118750000D02*
X91500000Y-115500000D01*
X91500000Y-115500000D02*
X92500000Y-115500000D01*
%TO.N,/LBO*%
X94500000Y-102750000D02*
X94250000Y-102500000D01*
X94250000Y-102500000D02*
X91139999Y-102499999D01*
X91139999Y-102499999D02*
X90944999Y-102694999D01*
X89500000Y-104139998D02*
X89500000Y-114000000D01*
X90944999Y-102694999D02*
X89500000Y-104139998D01*
X89500000Y-114000000D02*
X88500000Y-115000000D01*
X88500000Y-115000000D02*
X88250000Y-115250000D01*
X88250000Y-115250000D02*
X88250000Y-117500000D01*
X88250000Y-117500000D02*
X91500000Y-120750000D01*
%TO.N,Net-(R3-Pad2)*%
X96250000Y-118000000D02*
X95750000Y-117500000D01*
X95750000Y-117500000D02*
X94000000Y-117500000D01*
X94000000Y-117500000D02*
X93750000Y-117500000D01*
X93750000Y-117500000D02*
X93500000Y-117750000D01*
X93500000Y-117750000D02*
X93500000Y-121500000D01*
X93500000Y-121500000D02*
X93500000Y-121500000D01*
%TD*%
D24*
%TO.N,GND*%
X113875001Y-125875000D02*
X80625000Y-125875000D01*
X80625000Y-120268545D01*
X80650000Y-120268545D01*
X80650000Y-120731455D01*
X80740309Y-121185470D01*
X80917457Y-121613143D01*
X81174636Y-121998038D01*
X81501962Y-122325364D01*
X81886857Y-122582543D01*
X82314530Y-122759691D01*
X82768545Y-122850000D01*
X83231455Y-122850000D01*
X83685470Y-122759691D01*
X84113143Y-122582543D01*
X84498038Y-122325364D01*
X84825364Y-121998038D01*
X85082543Y-121613143D01*
X85259691Y-121185470D01*
X85350000Y-120731455D01*
X85350000Y-120268545D01*
X85259691Y-119814530D01*
X85082543Y-119386857D01*
X84825364Y-119001962D01*
X84498038Y-118674636D01*
X84113143Y-118417457D01*
X83685470Y-118240309D01*
X83231455Y-118150000D01*
X82768545Y-118150000D01*
X82314530Y-118240309D01*
X81886857Y-118417457D01*
X81501962Y-118674636D01*
X81174636Y-119001962D01*
X80917457Y-119386857D01*
X80740309Y-119814530D01*
X80650000Y-120268545D01*
X80625000Y-120268545D01*
X80625000Y-113850000D01*
X85397097Y-113850000D01*
X85408682Y-113967621D01*
X85442990Y-114080721D01*
X85498704Y-114184955D01*
X85573683Y-114276317D01*
X85665045Y-114351296D01*
X85769279Y-114407010D01*
X85882379Y-114441318D01*
X86000000Y-114452903D01*
X86700000Y-114450000D01*
X86850000Y-114300000D01*
X86850000Y-113150000D01*
X87150000Y-113150000D01*
X87150000Y-114300000D01*
X87300000Y-114450000D01*
X87986493Y-114452847D01*
X87745719Y-114693622D01*
X87717105Y-114717105D01*
X87623381Y-114831308D01*
X87553739Y-114961600D01*
X87510853Y-115102975D01*
X87500000Y-115213166D01*
X87500000Y-115213173D01*
X87496373Y-115250000D01*
X87500000Y-115286828D01*
X87500001Y-117463163D01*
X87496373Y-117500000D01*
X87510853Y-117647025D01*
X87553739Y-117788400D01*
X87553740Y-117788401D01*
X87623382Y-117918693D01*
X87649838Y-117950929D01*
X87693624Y-118004283D01*
X87693625Y-118004284D01*
X87717106Y-118032895D01*
X87745715Y-118056374D01*
X90500000Y-120810660D01*
X90500000Y-120848491D01*
X90538429Y-121041689D01*
X90613811Y-121223678D01*
X90723249Y-121387463D01*
X90862537Y-121526751D01*
X91026322Y-121636189D01*
X91208311Y-121711571D01*
X91401509Y-121750000D01*
X91598491Y-121750000D01*
X91791689Y-121711571D01*
X91973678Y-121636189D01*
X92137463Y-121526751D01*
X92276751Y-121387463D01*
X92386189Y-121223678D01*
X92461571Y-121041689D01*
X92500000Y-120848491D01*
X92500000Y-120651509D01*
X92461571Y-120458311D01*
X92386189Y-120276322D01*
X92276751Y-120112537D01*
X92137463Y-119973249D01*
X92038390Y-119907050D01*
X92204189Y-119874071D01*
X92386178Y-119798689D01*
X92549963Y-119689251D01*
X92689251Y-119549963D01*
X92750000Y-119459045D01*
X92750001Y-120835785D01*
X92723249Y-120862537D01*
X92613811Y-121026322D01*
X92538429Y-121208311D01*
X92500000Y-121401509D01*
X92500000Y-121598491D01*
X92538429Y-121791689D01*
X92613811Y-121973678D01*
X92723249Y-122137463D01*
X92862537Y-122276751D01*
X93026322Y-122386189D01*
X93208311Y-122461571D01*
X93401509Y-122500000D01*
X93598491Y-122500000D01*
X93791689Y-122461571D01*
X93973678Y-122386189D01*
X94137463Y-122276751D01*
X94276751Y-122137463D01*
X94386189Y-121973678D01*
X94461571Y-121791689D01*
X94500000Y-121598491D01*
X94500000Y-121401509D01*
X94461571Y-121208311D01*
X94386189Y-121026322D01*
X94276751Y-120862537D01*
X94250000Y-120835786D01*
X94250000Y-118250000D01*
X95280137Y-118250000D01*
X95288429Y-118291689D01*
X95363811Y-118473678D01*
X95473249Y-118637463D01*
X95612537Y-118776751D01*
X95776322Y-118886189D01*
X95958311Y-118961571D01*
X96151509Y-119000000D01*
X96348491Y-119000000D01*
X96541689Y-118961571D01*
X96723678Y-118886189D01*
X96887463Y-118776751D01*
X97026751Y-118637463D01*
X97136189Y-118473678D01*
X97211571Y-118291689D01*
X97250000Y-118098491D01*
X97250000Y-117901509D01*
X97211571Y-117708311D01*
X97136189Y-117526322D01*
X97026751Y-117362537D01*
X96887463Y-117223249D01*
X96723678Y-117113811D01*
X96541689Y-117038429D01*
X96348491Y-117000000D01*
X96310659Y-117000000D01*
X96306379Y-116995720D01*
X96282895Y-116967105D01*
X96168693Y-116873381D01*
X96038401Y-116803739D01*
X95897026Y-116760853D01*
X95786835Y-116750000D01*
X95786827Y-116750000D01*
X95750000Y-116746373D01*
X95713173Y-116750000D01*
X93786824Y-116750000D01*
X93749999Y-116746373D01*
X93713174Y-116750000D01*
X93713165Y-116750000D01*
X93602974Y-116760853D01*
X93461599Y-116803739D01*
X93331307Y-116873381D01*
X93217105Y-116967105D01*
X93193625Y-116995715D01*
X92995719Y-117193622D01*
X92967105Y-117217105D01*
X92873381Y-117331308D01*
X92803739Y-117461600D01*
X92760853Y-117602975D01*
X92750000Y-117713166D01*
X92750000Y-117713173D01*
X92746373Y-117750000D01*
X92750000Y-117786828D01*
X92750000Y-118365954D01*
X92689251Y-118275037D01*
X92549963Y-118135749D01*
X92386178Y-118026311D01*
X92250000Y-117969904D01*
X92250000Y-116469863D01*
X92401509Y-116500000D01*
X92598491Y-116500000D01*
X92791689Y-116461571D01*
X92973678Y-116386189D01*
X93137463Y-116276751D01*
X93276751Y-116137463D01*
X93386189Y-115973678D01*
X93461571Y-115791689D01*
X93500000Y-115598491D01*
X93500000Y-115401509D01*
X93461571Y-115208311D01*
X93386189Y-115026322D01*
X93276751Y-114862537D01*
X93137463Y-114723249D01*
X92973678Y-114613811D01*
X92791689Y-114538429D01*
X92598491Y-114500000D01*
X92401509Y-114500000D01*
X92250000Y-114530137D01*
X92250000Y-113150000D01*
X93797097Y-113150000D01*
X93797097Y-115850000D01*
X93808682Y-115967621D01*
X93842990Y-116080721D01*
X93898704Y-116184955D01*
X93973683Y-116276317D01*
X94065045Y-116351296D01*
X94169279Y-116407010D01*
X94282379Y-116441318D01*
X94400000Y-116452903D01*
X97100000Y-116452903D01*
X97217621Y-116441318D01*
X97330721Y-116407010D01*
X97434955Y-116351296D01*
X97526317Y-116276317D01*
X97601296Y-116184955D01*
X97657010Y-116080721D01*
X97691318Y-115967621D01*
X97702903Y-115850000D01*
X97702903Y-113150000D01*
X97691318Y-113032379D01*
X97657010Y-112919279D01*
X97601296Y-112815045D01*
X97526317Y-112723683D01*
X97434955Y-112648704D01*
X97330721Y-112592990D01*
X97217621Y-112558682D01*
X97100000Y-112547097D01*
X94400000Y-112547097D01*
X94282379Y-112558682D01*
X94169279Y-112592990D01*
X94065045Y-112648704D01*
X93973683Y-112723683D01*
X93898704Y-112815045D01*
X93842990Y-112919279D01*
X93808682Y-113032379D01*
X93797097Y-113150000D01*
X92250000Y-113150000D01*
X92250000Y-103914214D01*
X92276751Y-103887463D01*
X92386189Y-103723678D01*
X92461571Y-103541689D01*
X92500000Y-103348491D01*
X92500000Y-103249999D01*
X93631399Y-103250000D01*
X93723249Y-103387463D01*
X93862537Y-103526751D01*
X94026322Y-103636189D01*
X94208311Y-103711571D01*
X94401509Y-103750000D01*
X94598491Y-103750000D01*
X94791689Y-103711571D01*
X94973678Y-103636189D01*
X95137463Y-103526751D01*
X95276751Y-103387463D01*
X95386189Y-103223678D01*
X95461571Y-103041689D01*
X95500000Y-102848491D01*
X95500000Y-102724113D01*
X101737999Y-102724113D01*
X101737999Y-102999889D01*
X101791800Y-103270366D01*
X101897335Y-103525150D01*
X102050548Y-103754449D01*
X102245551Y-103949452D01*
X102388000Y-104044634D01*
X102387999Y-120018541D01*
X102316301Y-120191635D01*
X102262500Y-120462112D01*
X102262500Y-120737888D01*
X102316301Y-121008365D01*
X102421836Y-121263149D01*
X102575049Y-121492448D01*
X102770052Y-121687451D01*
X102999351Y-121840664D01*
X103254135Y-121946199D01*
X103524612Y-122000000D01*
X103800388Y-122000000D01*
X104070865Y-121946199D01*
X104325649Y-121840664D01*
X104554948Y-121687451D01*
X104749951Y-121492448D01*
X104903164Y-121263149D01*
X105008699Y-121008365D01*
X105062500Y-120737888D01*
X105062500Y-120462112D01*
X105008699Y-120191635D01*
X104903164Y-119936851D01*
X104749951Y-119707552D01*
X104554948Y-119512549D01*
X104325649Y-119359336D01*
X104070865Y-119253801D01*
X103982077Y-119236140D01*
X105505992Y-119236140D01*
X105696177Y-119564699D01*
X106109607Y-119772931D01*
X106555717Y-119896506D01*
X107017364Y-119930674D01*
X107476806Y-119874123D01*
X107916387Y-119729026D01*
X108223823Y-119564699D01*
X108414008Y-119236140D01*
X106960000Y-117782132D01*
X105505992Y-119236140D01*
X103982077Y-119236140D01*
X103887999Y-119217427D01*
X103887999Y-117627364D01*
X104599326Y-117627364D01*
X104655877Y-118086806D01*
X104800974Y-118526387D01*
X104965301Y-118833823D01*
X105293860Y-119024008D01*
X106747868Y-117570000D01*
X107172132Y-117570000D01*
X108626140Y-119024008D01*
X108954699Y-118833823D01*
X109162931Y-118420393D01*
X109286506Y-117974283D01*
X109320674Y-117512636D01*
X109264123Y-117053194D01*
X109119026Y-116613613D01*
X108954699Y-116306177D01*
X108626140Y-116115992D01*
X107172132Y-117570000D01*
X106747868Y-117570000D01*
X105293860Y-116115992D01*
X104965301Y-116306177D01*
X104757069Y-116719607D01*
X104633494Y-117165717D01*
X104599326Y-117627364D01*
X103887999Y-117627364D01*
X103887999Y-115903860D01*
X105505992Y-115903860D01*
X106960000Y-117357868D01*
X108414008Y-115903860D01*
X108223823Y-115575301D01*
X107810393Y-115367069D01*
X107364283Y-115243494D01*
X106902636Y-115209326D01*
X106443194Y-115265877D01*
X106003613Y-115410974D01*
X105696177Y-115575301D01*
X105505992Y-115903860D01*
X103887999Y-115903860D01*
X103887999Y-115864903D01*
X105012000Y-115864903D01*
X105129621Y-115853318D01*
X105242721Y-115819010D01*
X105346955Y-115763296D01*
X105438317Y-115688317D01*
X105513296Y-115596955D01*
X105569010Y-115492721D01*
X105603318Y-115379621D01*
X105614903Y-115262000D01*
X105614903Y-113738000D01*
X105603318Y-113620379D01*
X105569010Y-113507279D01*
X105513296Y-113403045D01*
X105438317Y-113311683D01*
X105346955Y-113236704D01*
X105242721Y-113180990D01*
X105129621Y-113146682D01*
X105012000Y-113135097D01*
X105002742Y-113135097D01*
X105118224Y-113057934D01*
X105307934Y-112868224D01*
X105456989Y-112645149D01*
X105559659Y-112397281D01*
X105612000Y-112134145D01*
X105612000Y-111865855D01*
X105559659Y-111602719D01*
X105456989Y-111354851D01*
X105307934Y-111131776D01*
X105176158Y-111000000D01*
X105307934Y-110868224D01*
X105456989Y-110645149D01*
X105559659Y-110397281D01*
X105612000Y-110134145D01*
X105612000Y-109865855D01*
X105559659Y-109602719D01*
X105456989Y-109354851D01*
X105307934Y-109131776D01*
X105118224Y-108942066D01*
X104895149Y-108793011D01*
X104792817Y-108750624D01*
X104861567Y-108724347D01*
X104928238Y-108688710D01*
X104999054Y-108461187D01*
X104250000Y-107712132D01*
X104235858Y-107726275D01*
X104023726Y-107514143D01*
X104037868Y-107500000D01*
X104462132Y-107500000D01*
X105211187Y-108249054D01*
X105438710Y-108178238D01*
X105548187Y-107933301D01*
X105607776Y-107671712D01*
X105615186Y-107403524D01*
X105570132Y-107139042D01*
X105474347Y-106888433D01*
X105438710Y-106821762D01*
X105211187Y-106750946D01*
X104462132Y-107500000D01*
X104037868Y-107500000D01*
X104023726Y-107485858D01*
X104235858Y-107273726D01*
X104250000Y-107287868D01*
X104999054Y-106538813D01*
X104928238Y-106311290D01*
X104683301Y-106201813D01*
X104421712Y-106142224D01*
X104153524Y-106134814D01*
X103889042Y-106179868D01*
X103887999Y-106180267D01*
X103887999Y-106096140D01*
X105505992Y-106096140D01*
X105696177Y-106424699D01*
X106109607Y-106632931D01*
X106555717Y-106756506D01*
X107017364Y-106790674D01*
X107476806Y-106734123D01*
X107916387Y-106589026D01*
X108223823Y-106424699D01*
X108414008Y-106096140D01*
X106960000Y-104642132D01*
X105505992Y-106096140D01*
X103887999Y-106096140D01*
X103887999Y-104487364D01*
X104599326Y-104487364D01*
X104655877Y-104946806D01*
X104800974Y-105386387D01*
X104965301Y-105693823D01*
X105293860Y-105884008D01*
X106747868Y-104430000D01*
X107172132Y-104430000D01*
X108626140Y-105884008D01*
X108954699Y-105693823D01*
X109162931Y-105280393D01*
X109286506Y-104834283D01*
X109320674Y-104372636D01*
X109264123Y-103913194D01*
X109119026Y-103473613D01*
X108954699Y-103166177D01*
X108626140Y-102975992D01*
X107172132Y-104430000D01*
X106747868Y-104430000D01*
X105293860Y-102975992D01*
X104965301Y-103166177D01*
X104757069Y-103579607D01*
X104633494Y-104025717D01*
X104599326Y-104487364D01*
X103887999Y-104487364D01*
X103887999Y-104044633D01*
X104030447Y-103949452D01*
X104225450Y-103754449D01*
X104378663Y-103525150D01*
X104484198Y-103270366D01*
X104537999Y-102999889D01*
X104537999Y-102763860D01*
X105505992Y-102763860D01*
X106960000Y-104217868D01*
X108414008Y-102763860D01*
X108223823Y-102435301D01*
X107810393Y-102227069D01*
X107364283Y-102103494D01*
X106902636Y-102069326D01*
X106443194Y-102125877D01*
X106003613Y-102270974D01*
X105696177Y-102435301D01*
X105505992Y-102763860D01*
X104537999Y-102763860D01*
X104537999Y-102724113D01*
X104484198Y-102453636D01*
X104378663Y-102198852D01*
X104225450Y-101969553D01*
X104030447Y-101774550D01*
X103801148Y-101621337D01*
X103546364Y-101515802D01*
X103275887Y-101462001D01*
X103000111Y-101462001D01*
X102729634Y-101515802D01*
X102474850Y-101621337D01*
X102245551Y-101774550D01*
X102050548Y-101969553D01*
X101897335Y-102198852D01*
X101791800Y-102453636D01*
X101737999Y-102724113D01*
X95500000Y-102724113D01*
X95500000Y-102651509D01*
X95461571Y-102458311D01*
X95386189Y-102276322D01*
X95365691Y-102245645D01*
X95544321Y-102126289D01*
X95746289Y-101924321D01*
X95896141Y-101700050D01*
X96008674Y-101881457D01*
X96202760Y-102089133D01*
X96433632Y-102254954D01*
X96692418Y-102372548D01*
X96786234Y-102401000D01*
X97010000Y-102291317D01*
X97010000Y-101150000D01*
X96990000Y-101150000D01*
X96990000Y-100850000D01*
X97010000Y-100850000D01*
X97010000Y-99708683D01*
X97310000Y-99708683D01*
X97310000Y-100850000D01*
X97330000Y-100850000D01*
X97330000Y-101150000D01*
X97310000Y-101150000D01*
X97310000Y-102291317D01*
X97533766Y-102401000D01*
X97627582Y-102372548D01*
X97886368Y-102254954D01*
X98117240Y-102089133D01*
X98311326Y-101881457D01*
X98423859Y-101700050D01*
X98573711Y-101924321D01*
X98775679Y-102126289D01*
X99013167Y-102284973D01*
X99277051Y-102394277D01*
X99557187Y-102450000D01*
X99842813Y-102450000D01*
X100122949Y-102394277D01*
X100386833Y-102284973D01*
X100624321Y-102126289D01*
X100826289Y-101924321D01*
X100984973Y-101686833D01*
X101094277Y-101422949D01*
X101150000Y-101142813D01*
X101150000Y-100857187D01*
X101094277Y-100577051D01*
X100984973Y-100313167D01*
X100826289Y-100075679D01*
X100624321Y-99873711D01*
X100386833Y-99715027D01*
X100122949Y-99605723D01*
X99842813Y-99550000D01*
X99557187Y-99550000D01*
X99277051Y-99605723D01*
X99013167Y-99715027D01*
X98775679Y-99873711D01*
X98573711Y-100075679D01*
X98423859Y-100299950D01*
X98311326Y-100118543D01*
X98117240Y-99910867D01*
X97886368Y-99745046D01*
X97627582Y-99627452D01*
X97533766Y-99599000D01*
X97310000Y-99708683D01*
X97010000Y-99708683D01*
X96786234Y-99599000D01*
X96692418Y-99627452D01*
X96433632Y-99745046D01*
X96202760Y-99910867D01*
X96008674Y-100118543D01*
X95896141Y-100299950D01*
X95746289Y-100075679D01*
X95544321Y-99873711D01*
X95306833Y-99715027D01*
X95042949Y-99605723D01*
X94762813Y-99550000D01*
X94477187Y-99550000D01*
X94197051Y-99605723D01*
X93933167Y-99715027D01*
X93695679Y-99873711D01*
X93493711Y-100075679D01*
X93350000Y-100290758D01*
X93206289Y-100075679D01*
X93004321Y-99873711D01*
X92766833Y-99715027D01*
X92502949Y-99605723D01*
X92222813Y-99550000D01*
X91937187Y-99550000D01*
X91657051Y-99605723D01*
X91393167Y-99715027D01*
X91155679Y-99873711D01*
X90953711Y-100075679D01*
X90803859Y-100299950D01*
X90691326Y-100118543D01*
X90497240Y-99910867D01*
X90266368Y-99745046D01*
X90007582Y-99627452D01*
X89913766Y-99599000D01*
X89690000Y-99708683D01*
X89690000Y-100850000D01*
X89710000Y-100850000D01*
X89710000Y-101150000D01*
X89690000Y-101150000D01*
X89690000Y-102291317D01*
X89913766Y-102401000D01*
X90007582Y-102372548D01*
X90266368Y-102254954D01*
X90472276Y-102107063D01*
X90440721Y-102138618D01*
X90440715Y-102138623D01*
X88995719Y-103583620D01*
X88967105Y-103607103D01*
X88873381Y-103721306D01*
X88803739Y-103851598D01*
X88760853Y-103992973D01*
X88750000Y-104103164D01*
X88750000Y-104103171D01*
X88746373Y-104139998D01*
X88750000Y-104176825D01*
X88750001Y-113689339D01*
X88602832Y-113836509D01*
X88600000Y-113300000D01*
X88450000Y-113150000D01*
X87150000Y-113150000D01*
X86850000Y-113150000D01*
X85550000Y-113150000D01*
X85400000Y-113300000D01*
X85397097Y-113850000D01*
X80625000Y-113850000D01*
X80625000Y-110500000D01*
X85392985Y-110500000D01*
X85420981Y-110784250D01*
X85503894Y-111057576D01*
X85638536Y-111309474D01*
X85819735Y-111530265D01*
X85861922Y-111564887D01*
X85769279Y-111592990D01*
X85665045Y-111648704D01*
X85573683Y-111723683D01*
X85498704Y-111815045D01*
X85442990Y-111919279D01*
X85408682Y-112032379D01*
X85397097Y-112150000D01*
X85400000Y-112700000D01*
X85550000Y-112850000D01*
X86850000Y-112850000D01*
X86850000Y-112830000D01*
X87150000Y-112830000D01*
X87150000Y-112850000D01*
X88450000Y-112850000D01*
X88600000Y-112700000D01*
X88602903Y-112150000D01*
X88591318Y-112032379D01*
X88557010Y-111919279D01*
X88501296Y-111815045D01*
X88426317Y-111723683D01*
X88334955Y-111648704D01*
X88230721Y-111592990D01*
X88138078Y-111564887D01*
X88180265Y-111530265D01*
X88361464Y-111309474D01*
X88496106Y-111057576D01*
X88579019Y-110784250D01*
X88607015Y-110500000D01*
X88579019Y-110215750D01*
X88496106Y-109942424D01*
X88361464Y-109690526D01*
X88180265Y-109469735D01*
X87959474Y-109288536D01*
X87707576Y-109153894D01*
X87434250Y-109070981D01*
X87221225Y-109050000D01*
X86778775Y-109050000D01*
X86565750Y-109070981D01*
X86292424Y-109153894D01*
X86040526Y-109288536D01*
X85819735Y-109469735D01*
X85638536Y-109690526D01*
X85503894Y-109942424D01*
X85420981Y-110215750D01*
X85392985Y-110500000D01*
X80625000Y-110500000D01*
X80625000Y-102268545D01*
X80650000Y-102268545D01*
X80650000Y-102731455D01*
X80740309Y-103185470D01*
X80917457Y-103613143D01*
X81174636Y-103998038D01*
X81501962Y-104325364D01*
X81886857Y-104582543D01*
X82314530Y-104759691D01*
X82768545Y-104850000D01*
X83231455Y-104850000D01*
X83685470Y-104759691D01*
X84113143Y-104582543D01*
X84498038Y-104325364D01*
X84825364Y-103998038D01*
X85082543Y-103613143D01*
X85259691Y-103185470D01*
X85350000Y-102731455D01*
X85350000Y-102268545D01*
X85259691Y-101814530D01*
X85082543Y-101386857D01*
X84825364Y-101001962D01*
X84498038Y-100674636D01*
X84113143Y-100417457D01*
X83685470Y-100240309D01*
X83231455Y-100150000D01*
X85547097Y-100150000D01*
X85547097Y-101850000D01*
X85558682Y-101967621D01*
X85592990Y-102080721D01*
X85648704Y-102184955D01*
X85723683Y-102276317D01*
X85815045Y-102351296D01*
X85919279Y-102407010D01*
X86032379Y-102441318D01*
X86150000Y-102452903D01*
X87850000Y-102452903D01*
X87967621Y-102441318D01*
X88080721Y-102407010D01*
X88184955Y-102351296D01*
X88276317Y-102276317D01*
X88351296Y-102184955D01*
X88407010Y-102080721D01*
X88441318Y-101967621D01*
X88443976Y-101940632D01*
X88582760Y-102089133D01*
X88813632Y-102254954D01*
X89072418Y-102372548D01*
X89166234Y-102401000D01*
X89390000Y-102291317D01*
X89390000Y-101150000D01*
X89370000Y-101150000D01*
X89370000Y-100850000D01*
X89390000Y-100850000D01*
X89390000Y-99708683D01*
X89166234Y-99599000D01*
X89072418Y-99627452D01*
X88813632Y-99745046D01*
X88582760Y-99910867D01*
X88443976Y-100059368D01*
X88441318Y-100032379D01*
X88407010Y-99919279D01*
X88351296Y-99815045D01*
X88276317Y-99723683D01*
X88184955Y-99648704D01*
X88080721Y-99592990D01*
X87967621Y-99558682D01*
X87850000Y-99547097D01*
X86150000Y-99547097D01*
X86032379Y-99558682D01*
X85919279Y-99592990D01*
X85815045Y-99648704D01*
X85723683Y-99723683D01*
X85648704Y-99815045D01*
X85592990Y-99919279D01*
X85558682Y-100032379D01*
X85547097Y-100150000D01*
X83231455Y-100150000D01*
X82768545Y-100150000D01*
X82314530Y-100240309D01*
X81886857Y-100417457D01*
X81501962Y-100674636D01*
X81174636Y-101001962D01*
X80917457Y-101386857D01*
X80740309Y-101814530D01*
X80650000Y-102268545D01*
X80625000Y-102268545D01*
X80625000Y-99125000D01*
X113875000Y-99125000D01*
X113875001Y-125875000D01*
%TA.AperFunction,Conductor*%
D25*
G36*
X113875001Y-125875000D02*
G01*
X80625000Y-125875000D01*
X80625000Y-120268545D01*
X80650000Y-120268545D01*
X80650000Y-120731455D01*
X80740309Y-121185470D01*
X80917457Y-121613143D01*
X81174636Y-121998038D01*
X81501962Y-122325364D01*
X81886857Y-122582543D01*
X82314530Y-122759691D01*
X82768545Y-122850000D01*
X83231455Y-122850000D01*
X83685470Y-122759691D01*
X84113143Y-122582543D01*
X84498038Y-122325364D01*
X84825364Y-121998038D01*
X85082543Y-121613143D01*
X85259691Y-121185470D01*
X85350000Y-120731455D01*
X85350000Y-120268545D01*
X85259691Y-119814530D01*
X85082543Y-119386857D01*
X84825364Y-119001962D01*
X84498038Y-118674636D01*
X84113143Y-118417457D01*
X83685470Y-118240309D01*
X83231455Y-118150000D01*
X82768545Y-118150000D01*
X82314530Y-118240309D01*
X81886857Y-118417457D01*
X81501962Y-118674636D01*
X81174636Y-119001962D01*
X80917457Y-119386857D01*
X80740309Y-119814530D01*
X80650000Y-120268545D01*
X80625000Y-120268545D01*
X80625000Y-113850000D01*
X85397097Y-113850000D01*
X85408682Y-113967621D01*
X85442990Y-114080721D01*
X85498704Y-114184955D01*
X85573683Y-114276317D01*
X85665045Y-114351296D01*
X85769279Y-114407010D01*
X85882379Y-114441318D01*
X86000000Y-114452903D01*
X86700000Y-114450000D01*
X86850000Y-114300000D01*
X86850000Y-113150000D01*
X87150000Y-113150000D01*
X87150000Y-114300000D01*
X87300000Y-114450000D01*
X87986493Y-114452847D01*
X87745719Y-114693622D01*
X87717105Y-114717105D01*
X87623381Y-114831308D01*
X87553739Y-114961600D01*
X87510853Y-115102975D01*
X87500000Y-115213166D01*
X87500000Y-115213173D01*
X87496373Y-115250000D01*
X87500000Y-115286828D01*
X87500001Y-117463163D01*
X87496373Y-117500000D01*
X87510853Y-117647025D01*
X87553739Y-117788400D01*
X87553740Y-117788401D01*
X87623382Y-117918693D01*
X87649838Y-117950929D01*
X87693624Y-118004283D01*
X87693625Y-118004284D01*
X87717106Y-118032895D01*
X87745715Y-118056374D01*
X90500000Y-120810660D01*
X90500000Y-120848491D01*
X90538429Y-121041689D01*
X90613811Y-121223678D01*
X90723249Y-121387463D01*
X90862537Y-121526751D01*
X91026322Y-121636189D01*
X91208311Y-121711571D01*
X91401509Y-121750000D01*
X91598491Y-121750000D01*
X91791689Y-121711571D01*
X91973678Y-121636189D01*
X92137463Y-121526751D01*
X92276751Y-121387463D01*
X92386189Y-121223678D01*
X92461571Y-121041689D01*
X92500000Y-120848491D01*
X92500000Y-120651509D01*
X92461571Y-120458311D01*
X92386189Y-120276322D01*
X92276751Y-120112537D01*
X92137463Y-119973249D01*
X92038390Y-119907050D01*
X92204189Y-119874071D01*
X92386178Y-119798689D01*
X92549963Y-119689251D01*
X92689251Y-119549963D01*
X92750000Y-119459045D01*
X92750001Y-120835785D01*
X92723249Y-120862537D01*
X92613811Y-121026322D01*
X92538429Y-121208311D01*
X92500000Y-121401509D01*
X92500000Y-121598491D01*
X92538429Y-121791689D01*
X92613811Y-121973678D01*
X92723249Y-122137463D01*
X92862537Y-122276751D01*
X93026322Y-122386189D01*
X93208311Y-122461571D01*
X93401509Y-122500000D01*
X93598491Y-122500000D01*
X93791689Y-122461571D01*
X93973678Y-122386189D01*
X94137463Y-122276751D01*
X94276751Y-122137463D01*
X94386189Y-121973678D01*
X94461571Y-121791689D01*
X94500000Y-121598491D01*
X94500000Y-121401509D01*
X94461571Y-121208311D01*
X94386189Y-121026322D01*
X94276751Y-120862537D01*
X94250000Y-120835786D01*
X94250000Y-118250000D01*
X95280137Y-118250000D01*
X95288429Y-118291689D01*
X95363811Y-118473678D01*
X95473249Y-118637463D01*
X95612537Y-118776751D01*
X95776322Y-118886189D01*
X95958311Y-118961571D01*
X96151509Y-119000000D01*
X96348491Y-119000000D01*
X96541689Y-118961571D01*
X96723678Y-118886189D01*
X96887463Y-118776751D01*
X97026751Y-118637463D01*
X97136189Y-118473678D01*
X97211571Y-118291689D01*
X97250000Y-118098491D01*
X97250000Y-117901509D01*
X97211571Y-117708311D01*
X97136189Y-117526322D01*
X97026751Y-117362537D01*
X96887463Y-117223249D01*
X96723678Y-117113811D01*
X96541689Y-117038429D01*
X96348491Y-117000000D01*
X96310659Y-117000000D01*
X96306379Y-116995720D01*
X96282895Y-116967105D01*
X96168693Y-116873381D01*
X96038401Y-116803739D01*
X95897026Y-116760853D01*
X95786835Y-116750000D01*
X95786827Y-116750000D01*
X95750000Y-116746373D01*
X95713173Y-116750000D01*
X93786824Y-116750000D01*
X93749999Y-116746373D01*
X93713174Y-116750000D01*
X93713165Y-116750000D01*
X93602974Y-116760853D01*
X93461599Y-116803739D01*
X93331307Y-116873381D01*
X93217105Y-116967105D01*
X93193625Y-116995715D01*
X92995719Y-117193622D01*
X92967105Y-117217105D01*
X92873381Y-117331308D01*
X92803739Y-117461600D01*
X92760853Y-117602975D01*
X92750000Y-117713166D01*
X92750000Y-117713173D01*
X92746373Y-117750000D01*
X92750000Y-117786828D01*
X92750000Y-118365954D01*
X92689251Y-118275037D01*
X92549963Y-118135749D01*
X92386178Y-118026311D01*
X92250000Y-117969904D01*
X92250000Y-116469863D01*
X92401509Y-116500000D01*
X92598491Y-116500000D01*
X92791689Y-116461571D01*
X92973678Y-116386189D01*
X93137463Y-116276751D01*
X93276751Y-116137463D01*
X93386189Y-115973678D01*
X93461571Y-115791689D01*
X93500000Y-115598491D01*
X93500000Y-115401509D01*
X93461571Y-115208311D01*
X93386189Y-115026322D01*
X93276751Y-114862537D01*
X93137463Y-114723249D01*
X92973678Y-114613811D01*
X92791689Y-114538429D01*
X92598491Y-114500000D01*
X92401509Y-114500000D01*
X92250000Y-114530137D01*
X92250000Y-113150000D01*
X93797097Y-113150000D01*
X93797097Y-115850000D01*
X93808682Y-115967621D01*
X93842990Y-116080721D01*
X93898704Y-116184955D01*
X93973683Y-116276317D01*
X94065045Y-116351296D01*
X94169279Y-116407010D01*
X94282379Y-116441318D01*
X94400000Y-116452903D01*
X97100000Y-116452903D01*
X97217621Y-116441318D01*
X97330721Y-116407010D01*
X97434955Y-116351296D01*
X97526317Y-116276317D01*
X97601296Y-116184955D01*
X97657010Y-116080721D01*
X97691318Y-115967621D01*
X97702903Y-115850000D01*
X97702903Y-113150000D01*
X97691318Y-113032379D01*
X97657010Y-112919279D01*
X97601296Y-112815045D01*
X97526317Y-112723683D01*
X97434955Y-112648704D01*
X97330721Y-112592990D01*
X97217621Y-112558682D01*
X97100000Y-112547097D01*
X94400000Y-112547097D01*
X94282379Y-112558682D01*
X94169279Y-112592990D01*
X94065045Y-112648704D01*
X93973683Y-112723683D01*
X93898704Y-112815045D01*
X93842990Y-112919279D01*
X93808682Y-113032379D01*
X93797097Y-113150000D01*
X92250000Y-113150000D01*
X92250000Y-103914214D01*
X92276751Y-103887463D01*
X92386189Y-103723678D01*
X92461571Y-103541689D01*
X92500000Y-103348491D01*
X92500000Y-103249999D01*
X93631399Y-103250000D01*
X93723249Y-103387463D01*
X93862537Y-103526751D01*
X94026322Y-103636189D01*
X94208311Y-103711571D01*
X94401509Y-103750000D01*
X94598491Y-103750000D01*
X94791689Y-103711571D01*
X94973678Y-103636189D01*
X95137463Y-103526751D01*
X95276751Y-103387463D01*
X95386189Y-103223678D01*
X95461571Y-103041689D01*
X95500000Y-102848491D01*
X95500000Y-102724113D01*
X101737999Y-102724113D01*
X101737999Y-102999889D01*
X101791800Y-103270366D01*
X101897335Y-103525150D01*
X102050548Y-103754449D01*
X102245551Y-103949452D01*
X102388000Y-104044634D01*
X102387999Y-120018541D01*
X102316301Y-120191635D01*
X102262500Y-120462112D01*
X102262500Y-120737888D01*
X102316301Y-121008365D01*
X102421836Y-121263149D01*
X102575049Y-121492448D01*
X102770052Y-121687451D01*
X102999351Y-121840664D01*
X103254135Y-121946199D01*
X103524612Y-122000000D01*
X103800388Y-122000000D01*
X104070865Y-121946199D01*
X104325649Y-121840664D01*
X104554948Y-121687451D01*
X104749951Y-121492448D01*
X104903164Y-121263149D01*
X105008699Y-121008365D01*
X105062500Y-120737888D01*
X105062500Y-120462112D01*
X105008699Y-120191635D01*
X104903164Y-119936851D01*
X104749951Y-119707552D01*
X104554948Y-119512549D01*
X104325649Y-119359336D01*
X104070865Y-119253801D01*
X103982077Y-119236140D01*
X105505992Y-119236140D01*
X105696177Y-119564699D01*
X106109607Y-119772931D01*
X106555717Y-119896506D01*
X107017364Y-119930674D01*
X107476806Y-119874123D01*
X107916387Y-119729026D01*
X108223823Y-119564699D01*
X108414008Y-119236140D01*
X106960000Y-117782132D01*
X105505992Y-119236140D01*
X103982077Y-119236140D01*
X103887999Y-119217427D01*
X103887999Y-117627364D01*
X104599326Y-117627364D01*
X104655877Y-118086806D01*
X104800974Y-118526387D01*
X104965301Y-118833823D01*
X105293860Y-119024008D01*
X106747868Y-117570000D01*
X107172132Y-117570000D01*
X108626140Y-119024008D01*
X108954699Y-118833823D01*
X109162931Y-118420393D01*
X109286506Y-117974283D01*
X109320674Y-117512636D01*
X109264123Y-117053194D01*
X109119026Y-116613613D01*
X108954699Y-116306177D01*
X108626140Y-116115992D01*
X107172132Y-117570000D01*
X106747868Y-117570000D01*
X105293860Y-116115992D01*
X104965301Y-116306177D01*
X104757069Y-116719607D01*
X104633494Y-117165717D01*
X104599326Y-117627364D01*
X103887999Y-117627364D01*
X103887999Y-115903860D01*
X105505992Y-115903860D01*
X106960000Y-117357868D01*
X108414008Y-115903860D01*
X108223823Y-115575301D01*
X107810393Y-115367069D01*
X107364283Y-115243494D01*
X106902636Y-115209326D01*
X106443194Y-115265877D01*
X106003613Y-115410974D01*
X105696177Y-115575301D01*
X105505992Y-115903860D01*
X103887999Y-115903860D01*
X103887999Y-115864903D01*
X105012000Y-115864903D01*
X105129621Y-115853318D01*
X105242721Y-115819010D01*
X105346955Y-115763296D01*
X105438317Y-115688317D01*
X105513296Y-115596955D01*
X105569010Y-115492721D01*
X105603318Y-115379621D01*
X105614903Y-115262000D01*
X105614903Y-113738000D01*
X105603318Y-113620379D01*
X105569010Y-113507279D01*
X105513296Y-113403045D01*
X105438317Y-113311683D01*
X105346955Y-113236704D01*
X105242721Y-113180990D01*
X105129621Y-113146682D01*
X105012000Y-113135097D01*
X105002742Y-113135097D01*
X105118224Y-113057934D01*
X105307934Y-112868224D01*
X105456989Y-112645149D01*
X105559659Y-112397281D01*
X105612000Y-112134145D01*
X105612000Y-111865855D01*
X105559659Y-111602719D01*
X105456989Y-111354851D01*
X105307934Y-111131776D01*
X105176158Y-111000000D01*
X105307934Y-110868224D01*
X105456989Y-110645149D01*
X105559659Y-110397281D01*
X105612000Y-110134145D01*
X105612000Y-109865855D01*
X105559659Y-109602719D01*
X105456989Y-109354851D01*
X105307934Y-109131776D01*
X105118224Y-108942066D01*
X104895149Y-108793011D01*
X104792817Y-108750624D01*
X104861567Y-108724347D01*
X104928238Y-108688710D01*
X104999054Y-108461187D01*
X104250000Y-107712132D01*
X104235858Y-107726275D01*
X104023726Y-107514143D01*
X104037868Y-107500000D01*
X104462132Y-107500000D01*
X105211187Y-108249054D01*
X105438710Y-108178238D01*
X105548187Y-107933301D01*
X105607776Y-107671712D01*
X105615186Y-107403524D01*
X105570132Y-107139042D01*
X105474347Y-106888433D01*
X105438710Y-106821762D01*
X105211187Y-106750946D01*
X104462132Y-107500000D01*
X104037868Y-107500000D01*
X104023726Y-107485858D01*
X104235858Y-107273726D01*
X104250000Y-107287868D01*
X104999054Y-106538813D01*
X104928238Y-106311290D01*
X104683301Y-106201813D01*
X104421712Y-106142224D01*
X104153524Y-106134814D01*
X103889042Y-106179868D01*
X103887999Y-106180267D01*
X103887999Y-106096140D01*
X105505992Y-106096140D01*
X105696177Y-106424699D01*
X106109607Y-106632931D01*
X106555717Y-106756506D01*
X107017364Y-106790674D01*
X107476806Y-106734123D01*
X107916387Y-106589026D01*
X108223823Y-106424699D01*
X108414008Y-106096140D01*
X106960000Y-104642132D01*
X105505992Y-106096140D01*
X103887999Y-106096140D01*
X103887999Y-104487364D01*
X104599326Y-104487364D01*
X104655877Y-104946806D01*
X104800974Y-105386387D01*
X104965301Y-105693823D01*
X105293860Y-105884008D01*
X106747868Y-104430000D01*
X107172132Y-104430000D01*
X108626140Y-105884008D01*
X108954699Y-105693823D01*
X109162931Y-105280393D01*
X109286506Y-104834283D01*
X109320674Y-104372636D01*
X109264123Y-103913194D01*
X109119026Y-103473613D01*
X108954699Y-103166177D01*
X108626140Y-102975992D01*
X107172132Y-104430000D01*
X106747868Y-104430000D01*
X105293860Y-102975992D01*
X104965301Y-103166177D01*
X104757069Y-103579607D01*
X104633494Y-104025717D01*
X104599326Y-104487364D01*
X103887999Y-104487364D01*
X103887999Y-104044633D01*
X104030447Y-103949452D01*
X104225450Y-103754449D01*
X104378663Y-103525150D01*
X104484198Y-103270366D01*
X104537999Y-102999889D01*
X104537999Y-102763860D01*
X105505992Y-102763860D01*
X106960000Y-104217868D01*
X108414008Y-102763860D01*
X108223823Y-102435301D01*
X107810393Y-102227069D01*
X107364283Y-102103494D01*
X106902636Y-102069326D01*
X106443194Y-102125877D01*
X106003613Y-102270974D01*
X105696177Y-102435301D01*
X105505992Y-102763860D01*
X104537999Y-102763860D01*
X104537999Y-102724113D01*
X104484198Y-102453636D01*
X104378663Y-102198852D01*
X104225450Y-101969553D01*
X104030447Y-101774550D01*
X103801148Y-101621337D01*
X103546364Y-101515802D01*
X103275887Y-101462001D01*
X103000111Y-101462001D01*
X102729634Y-101515802D01*
X102474850Y-101621337D01*
X102245551Y-101774550D01*
X102050548Y-101969553D01*
X101897335Y-102198852D01*
X101791800Y-102453636D01*
X101737999Y-102724113D01*
X95500000Y-102724113D01*
X95500000Y-102651509D01*
X95461571Y-102458311D01*
X95386189Y-102276322D01*
X95365691Y-102245645D01*
X95544321Y-102126289D01*
X95746289Y-101924321D01*
X95896141Y-101700050D01*
X96008674Y-101881457D01*
X96202760Y-102089133D01*
X96433632Y-102254954D01*
X96692418Y-102372548D01*
X96786234Y-102401000D01*
X97010000Y-102291317D01*
X97010000Y-101150000D01*
X96990000Y-101150000D01*
X96990000Y-100850000D01*
X97010000Y-100850000D01*
X97010000Y-99708683D01*
X97310000Y-99708683D01*
X97310000Y-100850000D01*
X97330000Y-100850000D01*
X97330000Y-101150000D01*
X97310000Y-101150000D01*
X97310000Y-102291317D01*
X97533766Y-102401000D01*
X97627582Y-102372548D01*
X97886368Y-102254954D01*
X98117240Y-102089133D01*
X98311326Y-101881457D01*
X98423859Y-101700050D01*
X98573711Y-101924321D01*
X98775679Y-102126289D01*
X99013167Y-102284973D01*
X99277051Y-102394277D01*
X99557187Y-102450000D01*
X99842813Y-102450000D01*
X100122949Y-102394277D01*
X100386833Y-102284973D01*
X100624321Y-102126289D01*
X100826289Y-101924321D01*
X100984973Y-101686833D01*
X101094277Y-101422949D01*
X101150000Y-101142813D01*
X101150000Y-100857187D01*
X101094277Y-100577051D01*
X100984973Y-100313167D01*
X100826289Y-100075679D01*
X100624321Y-99873711D01*
X100386833Y-99715027D01*
X100122949Y-99605723D01*
X99842813Y-99550000D01*
X99557187Y-99550000D01*
X99277051Y-99605723D01*
X99013167Y-99715027D01*
X98775679Y-99873711D01*
X98573711Y-100075679D01*
X98423859Y-100299950D01*
X98311326Y-100118543D01*
X98117240Y-99910867D01*
X97886368Y-99745046D01*
X97627582Y-99627452D01*
X97533766Y-99599000D01*
X97310000Y-99708683D01*
X97010000Y-99708683D01*
X96786234Y-99599000D01*
X96692418Y-99627452D01*
X96433632Y-99745046D01*
X96202760Y-99910867D01*
X96008674Y-100118543D01*
X95896141Y-100299950D01*
X95746289Y-100075679D01*
X95544321Y-99873711D01*
X95306833Y-99715027D01*
X95042949Y-99605723D01*
X94762813Y-99550000D01*
X94477187Y-99550000D01*
X94197051Y-99605723D01*
X93933167Y-99715027D01*
X93695679Y-99873711D01*
X93493711Y-100075679D01*
X93350000Y-100290758D01*
X93206289Y-100075679D01*
X93004321Y-99873711D01*
X92766833Y-99715027D01*
X92502949Y-99605723D01*
X92222813Y-99550000D01*
X91937187Y-99550000D01*
X91657051Y-99605723D01*
X91393167Y-99715027D01*
X91155679Y-99873711D01*
X90953711Y-100075679D01*
X90803859Y-100299950D01*
X90691326Y-100118543D01*
X90497240Y-99910867D01*
X90266368Y-99745046D01*
X90007582Y-99627452D01*
X89913766Y-99599000D01*
X89690000Y-99708683D01*
X89690000Y-100850000D01*
X89710000Y-100850000D01*
X89710000Y-101150000D01*
X89690000Y-101150000D01*
X89690000Y-102291317D01*
X89913766Y-102401000D01*
X90007582Y-102372548D01*
X90266368Y-102254954D01*
X90472276Y-102107063D01*
X90440721Y-102138618D01*
X90440715Y-102138623D01*
X88995719Y-103583620D01*
X88967105Y-103607103D01*
X88873381Y-103721306D01*
X88803739Y-103851598D01*
X88760853Y-103992973D01*
X88750000Y-104103164D01*
X88750000Y-104103171D01*
X88746373Y-104139998D01*
X88750000Y-104176825D01*
X88750001Y-113689339D01*
X88602832Y-113836509D01*
X88600000Y-113300000D01*
X88450000Y-113150000D01*
X87150000Y-113150000D01*
X86850000Y-113150000D01*
X85550000Y-113150000D01*
X85400000Y-113300000D01*
X85397097Y-113850000D01*
X80625000Y-113850000D01*
X80625000Y-110500000D01*
X85392985Y-110500000D01*
X85420981Y-110784250D01*
X85503894Y-111057576D01*
X85638536Y-111309474D01*
X85819735Y-111530265D01*
X85861922Y-111564887D01*
X85769279Y-111592990D01*
X85665045Y-111648704D01*
X85573683Y-111723683D01*
X85498704Y-111815045D01*
X85442990Y-111919279D01*
X85408682Y-112032379D01*
X85397097Y-112150000D01*
X85400000Y-112700000D01*
X85550000Y-112850000D01*
X86850000Y-112850000D01*
X86850000Y-112830000D01*
X87150000Y-112830000D01*
X87150000Y-112850000D01*
X88450000Y-112850000D01*
X88600000Y-112700000D01*
X88602903Y-112150000D01*
X88591318Y-112032379D01*
X88557010Y-111919279D01*
X88501296Y-111815045D01*
X88426317Y-111723683D01*
X88334955Y-111648704D01*
X88230721Y-111592990D01*
X88138078Y-111564887D01*
X88180265Y-111530265D01*
X88361464Y-111309474D01*
X88496106Y-111057576D01*
X88579019Y-110784250D01*
X88607015Y-110500000D01*
X88579019Y-110215750D01*
X88496106Y-109942424D01*
X88361464Y-109690526D01*
X88180265Y-109469735D01*
X87959474Y-109288536D01*
X87707576Y-109153894D01*
X87434250Y-109070981D01*
X87221225Y-109050000D01*
X86778775Y-109050000D01*
X86565750Y-109070981D01*
X86292424Y-109153894D01*
X86040526Y-109288536D01*
X85819735Y-109469735D01*
X85638536Y-109690526D01*
X85503894Y-109942424D01*
X85420981Y-110215750D01*
X85392985Y-110500000D01*
X80625000Y-110500000D01*
X80625000Y-102268545D01*
X80650000Y-102268545D01*
X80650000Y-102731455D01*
X80740309Y-103185470D01*
X80917457Y-103613143D01*
X81174636Y-103998038D01*
X81501962Y-104325364D01*
X81886857Y-104582543D01*
X82314530Y-104759691D01*
X82768545Y-104850000D01*
X83231455Y-104850000D01*
X83685470Y-104759691D01*
X84113143Y-104582543D01*
X84498038Y-104325364D01*
X84825364Y-103998038D01*
X85082543Y-103613143D01*
X85259691Y-103185470D01*
X85350000Y-102731455D01*
X85350000Y-102268545D01*
X85259691Y-101814530D01*
X85082543Y-101386857D01*
X84825364Y-101001962D01*
X84498038Y-100674636D01*
X84113143Y-100417457D01*
X83685470Y-100240309D01*
X83231455Y-100150000D01*
X85547097Y-100150000D01*
X85547097Y-101850000D01*
X85558682Y-101967621D01*
X85592990Y-102080721D01*
X85648704Y-102184955D01*
X85723683Y-102276317D01*
X85815045Y-102351296D01*
X85919279Y-102407010D01*
X86032379Y-102441318D01*
X86150000Y-102452903D01*
X87850000Y-102452903D01*
X87967621Y-102441318D01*
X88080721Y-102407010D01*
X88184955Y-102351296D01*
X88276317Y-102276317D01*
X88351296Y-102184955D01*
X88407010Y-102080721D01*
X88441318Y-101967621D01*
X88443976Y-101940632D01*
X88582760Y-102089133D01*
X88813632Y-102254954D01*
X89072418Y-102372548D01*
X89166234Y-102401000D01*
X89390000Y-102291317D01*
X89390000Y-101150000D01*
X89370000Y-101150000D01*
X89370000Y-100850000D01*
X89390000Y-100850000D01*
X89390000Y-99708683D01*
X89166234Y-99599000D01*
X89072418Y-99627452D01*
X88813632Y-99745046D01*
X88582760Y-99910867D01*
X88443976Y-100059368D01*
X88441318Y-100032379D01*
X88407010Y-99919279D01*
X88351296Y-99815045D01*
X88276317Y-99723683D01*
X88184955Y-99648704D01*
X88080721Y-99592990D01*
X87967621Y-99558682D01*
X87850000Y-99547097D01*
X86150000Y-99547097D01*
X86032379Y-99558682D01*
X85919279Y-99592990D01*
X85815045Y-99648704D01*
X85723683Y-99723683D01*
X85648704Y-99815045D01*
X85592990Y-99919279D01*
X85558682Y-100032379D01*
X85547097Y-100150000D01*
X83231455Y-100150000D01*
X82768545Y-100150000D01*
X82314530Y-100240309D01*
X81886857Y-100417457D01*
X81501962Y-100674636D01*
X81174636Y-101001962D01*
X80917457Y-101386857D01*
X80740309Y-101814530D01*
X80650000Y-102268545D01*
X80625000Y-102268545D01*
X80625000Y-99125000D01*
X113875000Y-99125000D01*
X113875001Y-125875000D01*
G37*
%TD.AperFunction*%
%TD*%
M02*
