%TF.GenerationSoftware,KiCad,Pcbnew,5.1.10-88a1d61d58~88~ubuntu18.04.1*%
%TF.CreationDate,2021-10-12T23:30:59-03:00*%
%TF.ProjectId,ConversorDCDC,436f6e76-6572-4736-9f72-444344432e6b,1.0*%
%TF.SameCoordinates,Original*%
%TF.FileFunction,OtherDrawing,Comment*%
%FSLAX46Y46*%
G04 Gerber Fmt 4.6, Leading zero omitted, Abs format (unit mm)*
G04 Created by KiCad (PCBNEW 5.1.10-88a1d61d58~88~ubuntu18.04.1) date 2021-10-12 23:30:59*
%MOMM*%
%LPD*%
G01*
G04 APERTURE LIST*
%ADD10C,0.150000*%
%TA.AperFunction,Profile*%
%ADD11C,0.050000*%
%TD*%
G04 APERTURE END LIST*
D10*
X128085595Y-98002380D02*
X128085595Y-97002380D01*
X128418928Y-97716666D01*
X128752261Y-97002380D01*
X128752261Y-98002380D01*
X129228452Y-98002380D02*
X129228452Y-97335714D01*
X129323690Y-96954761D02*
X129180833Y-97097619D01*
X129704642Y-97335714D02*
X129704642Y-98002380D01*
X129704642Y-97430952D02*
X129752261Y-97383333D01*
X129847500Y-97335714D01*
X129990357Y-97335714D01*
X130085595Y-97383333D01*
X130133214Y-97478571D01*
X130133214Y-98002380D01*
X130609404Y-98002380D02*
X130609404Y-97335714D01*
X130609404Y-97002380D02*
X130561785Y-97050000D01*
X130609404Y-97097619D01*
X130657023Y-97050000D01*
X130609404Y-97002380D01*
X130609404Y-97097619D01*
X131085595Y-98002380D02*
X131085595Y-97335714D01*
X131085595Y-97430952D02*
X131133214Y-97383333D01*
X131228452Y-97335714D01*
X131371309Y-97335714D01*
X131466547Y-97383333D01*
X131514166Y-97478571D01*
X131514166Y-98002380D01*
X131514166Y-97478571D02*
X131561785Y-97383333D01*
X131657023Y-97335714D01*
X131799880Y-97335714D01*
X131895119Y-97383333D01*
X131942738Y-97478571D01*
X131942738Y-98002380D01*
X132561785Y-98002380D02*
X132466547Y-97954761D01*
X132418928Y-97907142D01*
X132371309Y-97811904D01*
X132371309Y-97526190D01*
X132418928Y-97430952D01*
X132466547Y-97383333D01*
X132561785Y-97335714D01*
X132704642Y-97335714D01*
X132799880Y-97383333D01*
X132847500Y-97430952D01*
X132895119Y-97526190D01*
X132895119Y-97811904D01*
X132847500Y-97907142D01*
X132799880Y-97954761D01*
X132704642Y-98002380D01*
X132561785Y-98002380D01*
X133276071Y-97954761D02*
X133371309Y-98002380D01*
X133561785Y-98002380D01*
X133657023Y-97954761D01*
X133704642Y-97859523D01*
X133704642Y-97811904D01*
X133657023Y-97716666D01*
X133561785Y-97669047D01*
X133418928Y-97669047D01*
X133323690Y-97621428D01*
X133276071Y-97526190D01*
X133276071Y-97478571D01*
X133323690Y-97383333D01*
X133418928Y-97335714D01*
X133561785Y-97335714D01*
X133657023Y-97383333D01*
X135180833Y-98383333D02*
X135133214Y-98335714D01*
X135037976Y-98192857D01*
X134990357Y-98097619D01*
X134942738Y-97954761D01*
X134895119Y-97716666D01*
X134895119Y-97526190D01*
X134942738Y-97288095D01*
X134990357Y-97145238D01*
X135037976Y-97050000D01*
X135133214Y-96907142D01*
X135180833Y-96859523D01*
X135418928Y-97335714D02*
X135799880Y-97335714D01*
X135561785Y-98002380D02*
X135561785Y-97145238D01*
X135609404Y-97050000D01*
X135704642Y-97002380D01*
X135799880Y-97002380D01*
X136561785Y-98002380D02*
X136561785Y-97478571D01*
X136514166Y-97383333D01*
X136418928Y-97335714D01*
X136228452Y-97335714D01*
X136133214Y-97383333D01*
X136561785Y-97954761D02*
X136466547Y-98002380D01*
X136228452Y-98002380D01*
X136133214Y-97954761D01*
X136085595Y-97859523D01*
X136085595Y-97764285D01*
X136133214Y-97669047D01*
X136228452Y-97621428D01*
X136466547Y-97621428D01*
X136561785Y-97573809D01*
X137037976Y-98002380D02*
X137037976Y-97002380D01*
X137037976Y-97383333D02*
X137133214Y-97335714D01*
X137323690Y-97335714D01*
X137418928Y-97383333D01*
X137466547Y-97430952D01*
X137514166Y-97526190D01*
X137514166Y-97811904D01*
X137466547Y-97907142D01*
X137418928Y-97954761D01*
X137323690Y-98002380D01*
X137133214Y-98002380D01*
X137037976Y-97954761D01*
X137942738Y-98002380D02*
X137942738Y-97335714D01*
X137942738Y-97526190D02*
X137990357Y-97430952D01*
X138037976Y-97383333D01*
X138133214Y-97335714D01*
X138228452Y-97335714D01*
X138561785Y-98002380D02*
X138561785Y-97335714D01*
X138561785Y-97002380D02*
X138514166Y-97050000D01*
X138561785Y-97097619D01*
X138609404Y-97050000D01*
X138561785Y-97002380D01*
X138561785Y-97097619D01*
X139466547Y-97954761D02*
X139371309Y-98002380D01*
X139180833Y-98002380D01*
X139085595Y-97954761D01*
X139037976Y-97907142D01*
X138990357Y-97811904D01*
X138990357Y-97526190D01*
X139037976Y-97430952D01*
X139085595Y-97383333D01*
X139180833Y-97335714D01*
X139371309Y-97335714D01*
X139466547Y-97383333D01*
X140323690Y-98002380D02*
X140323690Y-97478571D01*
X140276071Y-97383333D01*
X140180833Y-97335714D01*
X139990357Y-97335714D01*
X139895119Y-97383333D01*
X140323690Y-97954761D02*
X140228452Y-98002380D01*
X139990357Y-98002380D01*
X139895119Y-97954761D01*
X139847500Y-97859523D01*
X139847500Y-97764285D01*
X139895119Y-97669047D01*
X139990357Y-97621428D01*
X140228452Y-97621428D01*
X140323690Y-97573809D01*
X140799880Y-97335714D02*
X140799880Y-98002380D01*
X140799880Y-97430952D02*
X140847500Y-97383333D01*
X140942738Y-97335714D01*
X141085595Y-97335714D01*
X141180833Y-97383333D01*
X141228452Y-97478571D01*
X141228452Y-98002380D01*
X141561785Y-97335714D02*
X141942738Y-97335714D01*
X141704642Y-97002380D02*
X141704642Y-97859523D01*
X141752261Y-97954761D01*
X141847500Y-98002380D01*
X141942738Y-98002380D01*
X142657023Y-97954761D02*
X142561785Y-98002380D01*
X142371309Y-98002380D01*
X142276071Y-97954761D01*
X142228452Y-97859523D01*
X142228452Y-97478571D01*
X142276071Y-97383333D01*
X142371309Y-97335714D01*
X142561785Y-97335714D01*
X142657023Y-97383333D01*
X142704642Y-97478571D01*
X142704642Y-97573809D01*
X142228452Y-97669047D01*
X143037976Y-98383333D02*
X143085595Y-98335714D01*
X143180833Y-98192857D01*
X143228452Y-98097619D01*
X143276071Y-97954761D01*
X143323690Y-97716666D01*
X143323690Y-97526190D01*
X143276071Y-97288095D01*
X143228452Y-97145238D01*
X143180833Y-97050000D01*
X143085595Y-96907142D01*
X143037976Y-96859523D01*
X143799880Y-97907142D02*
X143847500Y-97954761D01*
X143799880Y-98002380D01*
X143752261Y-97954761D01*
X143799880Y-97907142D01*
X143799880Y-98002380D01*
X143799880Y-97383333D02*
X143847500Y-97430952D01*
X143799880Y-97478571D01*
X143752261Y-97430952D01*
X143799880Y-97383333D01*
X143799880Y-97478571D01*
X145561785Y-98002380D02*
X144990357Y-98002380D01*
X145276071Y-98002380D02*
X145276071Y-97002380D01*
X145180833Y-97145238D01*
X145085595Y-97240476D01*
X144990357Y-97288095D01*
X146180833Y-97002380D02*
X146276071Y-97002380D01*
X146371309Y-97050000D01*
X146418928Y-97097619D01*
X146466547Y-97192857D01*
X146514166Y-97383333D01*
X146514166Y-97621428D01*
X146466547Y-97811904D01*
X146418928Y-97907142D01*
X146371309Y-97954761D01*
X146276071Y-98002380D01*
X146180833Y-98002380D01*
X146085595Y-97954761D01*
X146037976Y-97907142D01*
X145990357Y-97811904D01*
X145942738Y-97621428D01*
X145942738Y-97383333D01*
X145990357Y-97192857D01*
X146037976Y-97097619D01*
X146085595Y-97050000D01*
X146180833Y-97002380D01*
X147704642Y-98002380D02*
X147704642Y-97335714D01*
X147704642Y-97430952D02*
X147752261Y-97383333D01*
X147847500Y-97335714D01*
X147990357Y-97335714D01*
X148085595Y-97383333D01*
X148133214Y-97478571D01*
X148133214Y-98002380D01*
X148133214Y-97478571D02*
X148180833Y-97383333D01*
X148276071Y-97335714D01*
X148418928Y-97335714D01*
X148514166Y-97383333D01*
X148561785Y-97478571D01*
X148561785Y-98002380D01*
X149037976Y-98002380D02*
X149037976Y-97335714D01*
X149037976Y-97002380D02*
X148990357Y-97050000D01*
X149037976Y-97097619D01*
X149085595Y-97050000D01*
X149037976Y-97002380D01*
X149037976Y-97097619D01*
X149657023Y-98002380D02*
X149561785Y-97954761D01*
X149514166Y-97859523D01*
X149514166Y-97002380D01*
X149990357Y-97954761D02*
X150085595Y-98002380D01*
X150276071Y-98002380D01*
X150371309Y-97954761D01*
X150418928Y-97859523D01*
X150418928Y-97811904D01*
X150371309Y-97716666D01*
X150276071Y-97669047D01*
X150133214Y-97669047D01*
X150037976Y-97621428D01*
X149990357Y-97526190D01*
X149990357Y-97478571D01*
X150037976Y-97383333D01*
X150133214Y-97335714D01*
X150276071Y-97335714D01*
X150371309Y-97383333D01*
X128609404Y-98700000D02*
X128514166Y-98652380D01*
X128371309Y-98652380D01*
X128228452Y-98700000D01*
X128133214Y-98795238D01*
X128085595Y-98890476D01*
X128037976Y-99080952D01*
X128037976Y-99223809D01*
X128085595Y-99414285D01*
X128133214Y-99509523D01*
X128228452Y-99604761D01*
X128371309Y-99652380D01*
X128466547Y-99652380D01*
X128609404Y-99604761D01*
X128657023Y-99557142D01*
X128657023Y-99223809D01*
X128466547Y-99223809D01*
X129085595Y-99652380D02*
X129085595Y-98985714D01*
X129085595Y-99176190D02*
X129133214Y-99080952D01*
X129180833Y-99033333D01*
X129276071Y-98985714D01*
X129371309Y-98985714D01*
X129704642Y-99652380D02*
X129704642Y-98985714D01*
X129704642Y-98652380D02*
X129657023Y-98700000D01*
X129704642Y-98747619D01*
X129752261Y-98700000D01*
X129704642Y-98652380D01*
X129704642Y-98747619D01*
X130323690Y-99652380D02*
X130228452Y-99604761D01*
X130180833Y-99509523D01*
X130180833Y-98652380D01*
X130847500Y-99652380D02*
X130752261Y-99604761D01*
X130704642Y-99509523D01*
X130704642Y-98652380D01*
X131657023Y-99652380D02*
X131657023Y-99128571D01*
X131609404Y-99033333D01*
X131514166Y-98985714D01*
X131323690Y-98985714D01*
X131228452Y-99033333D01*
X131657023Y-99604761D02*
X131561785Y-99652380D01*
X131323690Y-99652380D01*
X131228452Y-99604761D01*
X131180833Y-99509523D01*
X131180833Y-99414285D01*
X131228452Y-99319047D01*
X131323690Y-99271428D01*
X131561785Y-99271428D01*
X131657023Y-99223809D01*
X132085595Y-99604761D02*
X132180833Y-99652380D01*
X132371309Y-99652380D01*
X132466547Y-99604761D01*
X132514166Y-99509523D01*
X132514166Y-99461904D01*
X132466547Y-99366666D01*
X132371309Y-99319047D01*
X132228452Y-99319047D01*
X132133214Y-99271428D01*
X132085595Y-99176190D01*
X132085595Y-99128571D01*
X132133214Y-99033333D01*
X132228452Y-98985714D01*
X132371309Y-98985714D01*
X132466547Y-99033333D01*
X132942738Y-99557142D02*
X132990357Y-99604761D01*
X132942738Y-99652380D01*
X132895119Y-99604761D01*
X132942738Y-99557142D01*
X132942738Y-99652380D01*
X132942738Y-99033333D02*
X132990357Y-99080952D01*
X132942738Y-99128571D01*
X132895119Y-99080952D01*
X132942738Y-99033333D01*
X132942738Y-99128571D01*
X134704642Y-99652380D02*
X134133214Y-99652380D01*
X134418928Y-99652380D02*
X134418928Y-98652380D01*
X134323690Y-98795238D01*
X134228452Y-98890476D01*
X134133214Y-98938095D01*
X135133214Y-99652380D02*
X135133214Y-98985714D01*
X135133214Y-99080952D02*
X135180833Y-99033333D01*
X135276071Y-98985714D01*
X135418928Y-98985714D01*
X135514166Y-99033333D01*
X135561785Y-99128571D01*
X135561785Y-99652380D01*
X135561785Y-99128571D02*
X135609404Y-99033333D01*
X135704642Y-98985714D01*
X135847500Y-98985714D01*
X135942738Y-99033333D01*
X135990357Y-99128571D01*
X135990357Y-99652380D01*
X136466547Y-99652380D02*
X136466547Y-98985714D01*
X136466547Y-99080952D02*
X136514166Y-99033333D01*
X136609404Y-98985714D01*
X136752261Y-98985714D01*
X136847500Y-99033333D01*
X136895119Y-99128571D01*
X136895119Y-99652380D01*
X136895119Y-99128571D02*
X136942738Y-99033333D01*
X137037976Y-98985714D01*
X137180833Y-98985714D01*
X137276071Y-99033333D01*
X137323690Y-99128571D01*
X137323690Y-99652380D01*
X137847500Y-99604761D02*
X137847500Y-99652380D01*
X137799880Y-99747619D01*
X137752261Y-99795238D01*
X139228452Y-98652380D02*
X139323690Y-98652380D01*
X139418928Y-98700000D01*
X139466547Y-98747619D01*
X139514166Y-98842857D01*
X139561785Y-99033333D01*
X139561785Y-99271428D01*
X139514166Y-99461904D01*
X139466547Y-99557142D01*
X139418928Y-99604761D01*
X139323690Y-99652380D01*
X139228452Y-99652380D01*
X139133214Y-99604761D01*
X139085595Y-99557142D01*
X139037976Y-99461904D01*
X138990357Y-99271428D01*
X138990357Y-99033333D01*
X139037976Y-98842857D01*
X139085595Y-98747619D01*
X139133214Y-98700000D01*
X139228452Y-98652380D01*
X139990357Y-99557142D02*
X140037976Y-99604761D01*
X139990357Y-99652380D01*
X139942738Y-99604761D01*
X139990357Y-99557142D01*
X139990357Y-99652380D01*
X140942738Y-98652380D02*
X140466547Y-98652380D01*
X140418928Y-99128571D01*
X140466547Y-99080952D01*
X140561785Y-99033333D01*
X140799880Y-99033333D01*
X140895119Y-99080952D01*
X140942738Y-99128571D01*
X140990357Y-99223809D01*
X140990357Y-99461904D01*
X140942738Y-99557142D01*
X140895119Y-99604761D01*
X140799880Y-99652380D01*
X140561785Y-99652380D01*
X140466547Y-99604761D01*
X140418928Y-99557142D01*
X142180833Y-99652380D02*
X142180833Y-98985714D01*
X142180833Y-99080952D02*
X142228452Y-99033333D01*
X142323690Y-98985714D01*
X142466547Y-98985714D01*
X142561785Y-99033333D01*
X142609404Y-99128571D01*
X142609404Y-99652380D01*
X142609404Y-99128571D02*
X142657023Y-99033333D01*
X142752261Y-98985714D01*
X142895119Y-98985714D01*
X142990357Y-99033333D01*
X143037976Y-99128571D01*
X143037976Y-99652380D01*
X143514166Y-99652380D02*
X143514166Y-98985714D01*
X143514166Y-99080952D02*
X143561785Y-99033333D01*
X143657023Y-98985714D01*
X143799880Y-98985714D01*
X143895119Y-99033333D01*
X143942738Y-99128571D01*
X143942738Y-99652380D01*
X143942738Y-99128571D02*
X143990357Y-99033333D01*
X144085595Y-98985714D01*
X144228452Y-98985714D01*
X144323690Y-99033333D01*
X144371309Y-99128571D01*
X144371309Y-99652380D01*
X144895119Y-99604761D02*
X144895119Y-99652380D01*
X144847500Y-99747619D01*
X144799880Y-99795238D01*
X146276071Y-98652380D02*
X146371309Y-98652380D01*
X146466547Y-98700000D01*
X146514166Y-98747619D01*
X146561785Y-98842857D01*
X146609404Y-99033333D01*
X146609404Y-99271428D01*
X146561785Y-99461904D01*
X146514166Y-99557142D01*
X146466547Y-99604761D01*
X146371309Y-99652380D01*
X146276071Y-99652380D01*
X146180833Y-99604761D01*
X146133214Y-99557142D01*
X146085595Y-99461904D01*
X146037976Y-99271428D01*
X146037976Y-99033333D01*
X146085595Y-98842857D01*
X146133214Y-98747619D01*
X146180833Y-98700000D01*
X146276071Y-98652380D01*
X147037976Y-99557142D02*
X147085595Y-99604761D01*
X147037976Y-99652380D01*
X146990357Y-99604761D01*
X147037976Y-99557142D01*
X147037976Y-99652380D01*
X147466547Y-98747619D02*
X147514166Y-98700000D01*
X147609404Y-98652380D01*
X147847500Y-98652380D01*
X147942738Y-98700000D01*
X147990357Y-98747619D01*
X148037976Y-98842857D01*
X148037976Y-98938095D01*
X147990357Y-99080952D01*
X147418928Y-99652380D01*
X148037976Y-99652380D01*
X148942738Y-98652380D02*
X148466547Y-98652380D01*
X148418928Y-99128571D01*
X148466547Y-99080952D01*
X148561785Y-99033333D01*
X148799880Y-99033333D01*
X148895119Y-99080952D01*
X148942738Y-99128571D01*
X148990357Y-99223809D01*
X148990357Y-99461904D01*
X148942738Y-99557142D01*
X148895119Y-99604761D01*
X148799880Y-99652380D01*
X148561785Y-99652380D01*
X148466547Y-99604761D01*
X148418928Y-99557142D01*
X150180833Y-99652380D02*
X150180833Y-98985714D01*
X150180833Y-99080952D02*
X150228452Y-99033333D01*
X150323690Y-98985714D01*
X150466547Y-98985714D01*
X150561785Y-99033333D01*
X150609404Y-99128571D01*
X150609404Y-99652380D01*
X150609404Y-99128571D02*
X150657023Y-99033333D01*
X150752261Y-98985714D01*
X150895119Y-98985714D01*
X150990357Y-99033333D01*
X151037976Y-99128571D01*
X151037976Y-99652380D01*
X151514166Y-99652380D02*
X151514166Y-98985714D01*
X151514166Y-99080952D02*
X151561785Y-99033333D01*
X151657023Y-98985714D01*
X151799880Y-98985714D01*
X151895119Y-99033333D01*
X151942738Y-99128571D01*
X151942738Y-99652380D01*
X151942738Y-99128571D02*
X151990357Y-99033333D01*
X152085595Y-98985714D01*
X152228452Y-98985714D01*
X152323690Y-99033333D01*
X152371309Y-99128571D01*
X152371309Y-99652380D01*
X127942738Y-100302380D02*
X128276071Y-101302380D01*
X128609404Y-100302380D01*
X128942738Y-101302380D02*
X128942738Y-100635714D01*
X128942738Y-100302380D02*
X128895119Y-100350000D01*
X128942738Y-100397619D01*
X128990357Y-100350000D01*
X128942738Y-100302380D01*
X128942738Y-100397619D01*
X129847500Y-101302380D02*
X129847500Y-100778571D01*
X129799880Y-100683333D01*
X129704642Y-100635714D01*
X129514166Y-100635714D01*
X129418928Y-100683333D01*
X129847500Y-101254761D02*
X129752261Y-101302380D01*
X129514166Y-101302380D01*
X129418928Y-101254761D01*
X129371309Y-101159523D01*
X129371309Y-101064285D01*
X129418928Y-100969047D01*
X129514166Y-100921428D01*
X129752261Y-100921428D01*
X129847500Y-100873809D01*
X130276071Y-101254761D02*
X130371309Y-101302380D01*
X130561785Y-101302380D01*
X130657023Y-101254761D01*
X130704642Y-101159523D01*
X130704642Y-101111904D01*
X130657023Y-101016666D01*
X130561785Y-100969047D01*
X130418928Y-100969047D01*
X130323690Y-100921428D01*
X130276071Y-100826190D01*
X130276071Y-100778571D01*
X130323690Y-100683333D01*
X130418928Y-100635714D01*
X130561785Y-100635714D01*
X130657023Y-100683333D01*
X131133214Y-101207142D02*
X131180833Y-101254761D01*
X131133214Y-101302380D01*
X131085595Y-101254761D01*
X131133214Y-101207142D01*
X131133214Y-101302380D01*
X131133214Y-100683333D02*
X131180833Y-100730952D01*
X131133214Y-100778571D01*
X131085595Y-100730952D01*
X131133214Y-100683333D01*
X131133214Y-100778571D01*
X132561785Y-100302380D02*
X132657023Y-100302380D01*
X132752261Y-100350000D01*
X132799880Y-100397619D01*
X132847500Y-100492857D01*
X132895119Y-100683333D01*
X132895119Y-100921428D01*
X132847500Y-101111904D01*
X132799880Y-101207142D01*
X132752261Y-101254761D01*
X132657023Y-101302380D01*
X132561785Y-101302380D01*
X132466547Y-101254761D01*
X132418928Y-101207142D01*
X132371309Y-101111904D01*
X132323690Y-100921428D01*
X132323690Y-100683333D01*
X132371309Y-100492857D01*
X132418928Y-100397619D01*
X132466547Y-100350000D01*
X132561785Y-100302380D01*
X133323690Y-101207142D02*
X133371309Y-101254761D01*
X133323690Y-101302380D01*
X133276071Y-101254761D01*
X133323690Y-101207142D01*
X133323690Y-101302380D01*
X133942738Y-100730952D02*
X133847500Y-100683333D01*
X133799880Y-100635714D01*
X133752261Y-100540476D01*
X133752261Y-100492857D01*
X133799880Y-100397619D01*
X133847500Y-100350000D01*
X133942738Y-100302380D01*
X134133214Y-100302380D01*
X134228452Y-100350000D01*
X134276071Y-100397619D01*
X134323690Y-100492857D01*
X134323690Y-100540476D01*
X134276071Y-100635714D01*
X134228452Y-100683333D01*
X134133214Y-100730952D01*
X133942738Y-100730952D01*
X133847500Y-100778571D01*
X133799880Y-100826190D01*
X133752261Y-100921428D01*
X133752261Y-101111904D01*
X133799880Y-101207142D01*
X133847500Y-101254761D01*
X133942738Y-101302380D01*
X134133214Y-101302380D01*
X134228452Y-101254761D01*
X134276071Y-101207142D01*
X134323690Y-101111904D01*
X134323690Y-100921428D01*
X134276071Y-100826190D01*
X134228452Y-100778571D01*
X134133214Y-100730952D01*
X135466547Y-100254761D02*
X134609404Y-101540476D01*
X135990357Y-100302380D02*
X136085595Y-100302380D01*
X136180833Y-100350000D01*
X136228452Y-100397619D01*
X136276071Y-100492857D01*
X136323690Y-100683333D01*
X136323690Y-100921428D01*
X136276071Y-101111904D01*
X136228452Y-101207142D01*
X136180833Y-101254761D01*
X136085595Y-101302380D01*
X135990357Y-101302380D01*
X135895119Y-101254761D01*
X135847500Y-101207142D01*
X135799880Y-101111904D01*
X135752261Y-100921428D01*
X135752261Y-100683333D01*
X135799880Y-100492857D01*
X135847500Y-100397619D01*
X135895119Y-100350000D01*
X135990357Y-100302380D01*
X136752261Y-101207142D02*
X136799880Y-101254761D01*
X136752261Y-101302380D01*
X136704642Y-101254761D01*
X136752261Y-101207142D01*
X136752261Y-101302380D01*
X137657023Y-100635714D02*
X137657023Y-101302380D01*
X137418928Y-100254761D02*
X137180833Y-100969047D01*
X137799880Y-100969047D01*
X138942738Y-101302380D02*
X138942738Y-100635714D01*
X138942738Y-100730952D02*
X138990357Y-100683333D01*
X139085595Y-100635714D01*
X139228452Y-100635714D01*
X139323690Y-100683333D01*
X139371309Y-100778571D01*
X139371309Y-101302380D01*
X139371309Y-100778571D02*
X139418928Y-100683333D01*
X139514166Y-100635714D01*
X139657023Y-100635714D01*
X139752261Y-100683333D01*
X139799880Y-100778571D01*
X139799880Y-101302380D01*
X140276071Y-101302380D02*
X140276071Y-100635714D01*
X140276071Y-100730952D02*
X140323690Y-100683333D01*
X140418928Y-100635714D01*
X140561785Y-100635714D01*
X140657023Y-100683333D01*
X140704642Y-100778571D01*
X140704642Y-101302380D01*
X140704642Y-100778571D02*
X140752261Y-100683333D01*
X140847500Y-100635714D01*
X140990357Y-100635714D01*
X141085595Y-100683333D01*
X141133214Y-100778571D01*
X141133214Y-101302380D01*
X128085595Y-102952380D02*
X128085595Y-101952380D01*
X128418928Y-102666666D01*
X128752261Y-101952380D01*
X128752261Y-102952380D01*
X129657023Y-102952380D02*
X129657023Y-102428571D01*
X129609404Y-102333333D01*
X129514166Y-102285714D01*
X129323690Y-102285714D01*
X129228452Y-102333333D01*
X129657023Y-102904761D02*
X129561785Y-102952380D01*
X129323690Y-102952380D01*
X129228452Y-102904761D01*
X129180833Y-102809523D01*
X129180833Y-102714285D01*
X129228452Y-102619047D01*
X129323690Y-102571428D01*
X129561785Y-102571428D01*
X129657023Y-102523809D01*
X130133214Y-102952380D02*
X130133214Y-102285714D01*
X130133214Y-102476190D02*
X130180833Y-102380952D01*
X130228452Y-102333333D01*
X130323690Y-102285714D01*
X130418928Y-102285714D01*
X131180833Y-102285714D02*
X131180833Y-103095238D01*
X131133214Y-103190476D01*
X131085595Y-103238095D01*
X130990357Y-103285714D01*
X130847500Y-103285714D01*
X130752261Y-103238095D01*
X131180833Y-102904761D02*
X131085595Y-102952380D01*
X130895119Y-102952380D01*
X130799880Y-102904761D01*
X130752261Y-102857142D01*
X130704642Y-102761904D01*
X130704642Y-102476190D01*
X130752261Y-102380952D01*
X130799880Y-102333333D01*
X130895119Y-102285714D01*
X131085595Y-102285714D01*
X131180833Y-102333333D01*
X132037976Y-102904761D02*
X131942738Y-102952380D01*
X131752261Y-102952380D01*
X131657023Y-102904761D01*
X131609404Y-102809523D01*
X131609404Y-102428571D01*
X131657023Y-102333333D01*
X131752261Y-102285714D01*
X131942738Y-102285714D01*
X132037976Y-102333333D01*
X132085595Y-102428571D01*
X132085595Y-102523809D01*
X131609404Y-102619047D01*
X132514166Y-102285714D02*
X132514166Y-102952380D01*
X132514166Y-102380952D02*
X132561785Y-102333333D01*
X132657023Y-102285714D01*
X132799880Y-102285714D01*
X132895119Y-102333333D01*
X132942738Y-102428571D01*
X132942738Y-102952380D01*
X133418928Y-102857142D02*
X133466547Y-102904761D01*
X133418928Y-102952380D01*
X133371309Y-102904761D01*
X133418928Y-102857142D01*
X133418928Y-102952380D01*
X133418928Y-102333333D02*
X133466547Y-102380952D01*
X133418928Y-102428571D01*
X133371309Y-102380952D01*
X133418928Y-102333333D01*
X133418928Y-102428571D01*
X134847500Y-101952380D02*
X134942738Y-101952380D01*
X135037976Y-102000000D01*
X135085595Y-102047619D01*
X135133214Y-102142857D01*
X135180833Y-102333333D01*
X135180833Y-102571428D01*
X135133214Y-102761904D01*
X135085595Y-102857142D01*
X135037976Y-102904761D01*
X134942738Y-102952380D01*
X134847500Y-102952380D01*
X134752261Y-102904761D01*
X134704642Y-102857142D01*
X134657023Y-102761904D01*
X134609404Y-102571428D01*
X134609404Y-102333333D01*
X134657023Y-102142857D01*
X134704642Y-102047619D01*
X134752261Y-102000000D01*
X134847500Y-101952380D01*
X135609404Y-102857142D02*
X135657023Y-102904761D01*
X135609404Y-102952380D01*
X135561785Y-102904761D01*
X135609404Y-102857142D01*
X135609404Y-102952380D01*
X136561785Y-101952380D02*
X136085595Y-101952380D01*
X136037976Y-102428571D01*
X136085595Y-102380952D01*
X136180833Y-102333333D01*
X136418928Y-102333333D01*
X136514166Y-102380952D01*
X136561785Y-102428571D01*
X136609404Y-102523809D01*
X136609404Y-102761904D01*
X136561785Y-102857142D01*
X136514166Y-102904761D01*
X136418928Y-102952380D01*
X136180833Y-102952380D01*
X136085595Y-102904761D01*
X136037976Y-102857142D01*
X137799880Y-102952380D02*
X137799880Y-102285714D01*
X137799880Y-102380952D02*
X137847500Y-102333333D01*
X137942738Y-102285714D01*
X138085595Y-102285714D01*
X138180833Y-102333333D01*
X138228452Y-102428571D01*
X138228452Y-102952380D01*
X138228452Y-102428571D02*
X138276071Y-102333333D01*
X138371309Y-102285714D01*
X138514166Y-102285714D01*
X138609404Y-102333333D01*
X138657023Y-102428571D01*
X138657023Y-102952380D01*
X139133214Y-102952380D02*
X139133214Y-102285714D01*
X139133214Y-102380952D02*
X139180833Y-102333333D01*
X139276071Y-102285714D01*
X139418928Y-102285714D01*
X139514166Y-102333333D01*
X139561785Y-102428571D01*
X139561785Y-102952380D01*
X139561785Y-102428571D02*
X139609404Y-102333333D01*
X139704642Y-102285714D01*
X139847500Y-102285714D01*
X139942738Y-102333333D01*
X139990357Y-102428571D01*
X139990357Y-102952380D01*
X128085595Y-104602380D02*
X128085595Y-103602380D01*
X128466547Y-103602380D01*
X128561785Y-103650000D01*
X128609404Y-103697619D01*
X128657023Y-103792857D01*
X128657023Y-103935714D01*
X128609404Y-104030952D01*
X128561785Y-104078571D01*
X128466547Y-104126190D01*
X128085595Y-104126190D01*
X129085595Y-104602380D02*
X129085595Y-103935714D01*
X129085595Y-103602380D02*
X129037976Y-103650000D01*
X129085595Y-103697619D01*
X129133214Y-103650000D01*
X129085595Y-103602380D01*
X129085595Y-103697619D01*
X129514166Y-104554761D02*
X129609404Y-104602380D01*
X129799880Y-104602380D01*
X129895119Y-104554761D01*
X129942738Y-104459523D01*
X129942738Y-104411904D01*
X129895119Y-104316666D01*
X129799880Y-104269047D01*
X129657023Y-104269047D01*
X129561785Y-104221428D01*
X129514166Y-104126190D01*
X129514166Y-104078571D01*
X129561785Y-103983333D01*
X129657023Y-103935714D01*
X129799880Y-103935714D01*
X129895119Y-103983333D01*
X130228452Y-103935714D02*
X130609404Y-103935714D01*
X130371309Y-103602380D02*
X130371309Y-104459523D01*
X130418928Y-104554761D01*
X130514166Y-104602380D01*
X130609404Y-104602380D01*
X131371309Y-104602380D02*
X131371309Y-104078571D01*
X131323690Y-103983333D01*
X131228452Y-103935714D01*
X131037976Y-103935714D01*
X130942738Y-103983333D01*
X131371309Y-104554761D02*
X131276071Y-104602380D01*
X131037976Y-104602380D01*
X130942738Y-104554761D01*
X130895119Y-104459523D01*
X130895119Y-104364285D01*
X130942738Y-104269047D01*
X131037976Y-104221428D01*
X131276071Y-104221428D01*
X131371309Y-104173809D01*
X131847500Y-104507142D02*
X131895119Y-104554761D01*
X131847500Y-104602380D01*
X131799880Y-104554761D01*
X131847500Y-104507142D01*
X131847500Y-104602380D01*
X131847500Y-103983333D02*
X131895119Y-104030952D01*
X131847500Y-104078571D01*
X131799880Y-104030952D01*
X131847500Y-103983333D01*
X131847500Y-104078571D01*
X133276071Y-103602380D02*
X133371309Y-103602380D01*
X133466547Y-103650000D01*
X133514166Y-103697619D01*
X133561785Y-103792857D01*
X133609404Y-103983333D01*
X133609404Y-104221428D01*
X133561785Y-104411904D01*
X133514166Y-104507142D01*
X133466547Y-104554761D01*
X133371309Y-104602380D01*
X133276071Y-104602380D01*
X133180833Y-104554761D01*
X133133214Y-104507142D01*
X133085595Y-104411904D01*
X133037976Y-104221428D01*
X133037976Y-103983333D01*
X133085595Y-103792857D01*
X133133214Y-103697619D01*
X133180833Y-103650000D01*
X133276071Y-103602380D01*
X134037976Y-104507142D02*
X134085595Y-104554761D01*
X134037976Y-104602380D01*
X133990357Y-104554761D01*
X134037976Y-104507142D01*
X134037976Y-104602380D01*
X134418928Y-103602380D02*
X135037976Y-103602380D01*
X134704642Y-103983333D01*
X134847500Y-103983333D01*
X134942738Y-104030952D01*
X134990357Y-104078571D01*
X135037976Y-104173809D01*
X135037976Y-104411904D01*
X134990357Y-104507142D01*
X134942738Y-104554761D01*
X134847500Y-104602380D01*
X134561785Y-104602380D01*
X134466547Y-104554761D01*
X134418928Y-104507142D01*
X136228452Y-104602380D02*
X136228452Y-103935714D01*
X136228452Y-104030952D02*
X136276071Y-103983333D01*
X136371309Y-103935714D01*
X136514166Y-103935714D01*
X136609404Y-103983333D01*
X136657023Y-104078571D01*
X136657023Y-104602380D01*
X136657023Y-104078571D02*
X136704642Y-103983333D01*
X136799880Y-103935714D01*
X136942738Y-103935714D01*
X137037976Y-103983333D01*
X137085595Y-104078571D01*
X137085595Y-104602380D01*
X137561785Y-104602380D02*
X137561785Y-103935714D01*
X137561785Y-104030952D02*
X137609404Y-103983333D01*
X137704642Y-103935714D01*
X137847500Y-103935714D01*
X137942738Y-103983333D01*
X137990357Y-104078571D01*
X137990357Y-104602380D01*
X137990357Y-104078571D02*
X138037976Y-103983333D01*
X138133214Y-103935714D01*
X138276071Y-103935714D01*
X138371309Y-103983333D01*
X138418928Y-104078571D01*
X138418928Y-104602380D01*
X128085595Y-106252380D02*
X128085595Y-105252380D01*
X128323690Y-105252380D01*
X128466547Y-105300000D01*
X128561785Y-105395238D01*
X128609404Y-105490476D01*
X128657023Y-105680952D01*
X128657023Y-105823809D01*
X128609404Y-106014285D01*
X128561785Y-106109523D01*
X128466547Y-106204761D01*
X128323690Y-106252380D01*
X128085595Y-106252380D01*
X129085595Y-106252380D02*
X129085595Y-105585714D01*
X129085595Y-105252380D02*
X129037976Y-105300000D01*
X129085595Y-105347619D01*
X129133214Y-105300000D01*
X129085595Y-105252380D01*
X129085595Y-105347619D01*
X129514166Y-106204761D02*
X129609404Y-106252380D01*
X129799880Y-106252380D01*
X129895119Y-106204761D01*
X129942738Y-106109523D01*
X129942738Y-106061904D01*
X129895119Y-105966666D01*
X129799880Y-105919047D01*
X129657023Y-105919047D01*
X129561785Y-105871428D01*
X129514166Y-105776190D01*
X129514166Y-105728571D01*
X129561785Y-105633333D01*
X129657023Y-105585714D01*
X129799880Y-105585714D01*
X129895119Y-105633333D01*
X130228452Y-105585714D02*
X130609404Y-105585714D01*
X130371309Y-105252380D02*
X130371309Y-106109523D01*
X130418928Y-106204761D01*
X130514166Y-106252380D01*
X130609404Y-106252380D01*
X130942738Y-106157142D02*
X130990357Y-106204761D01*
X130942738Y-106252380D01*
X130895119Y-106204761D01*
X130942738Y-106157142D01*
X130942738Y-106252380D01*
X132609404Y-106252380D02*
X132609404Y-105728571D01*
X132561785Y-105633333D01*
X132466547Y-105585714D01*
X132276071Y-105585714D01*
X132180833Y-105633333D01*
X132609404Y-106204761D02*
X132514166Y-106252380D01*
X132276071Y-106252380D01*
X132180833Y-106204761D01*
X132133214Y-106109523D01*
X132133214Y-106014285D01*
X132180833Y-105919047D01*
X132276071Y-105871428D01*
X132514166Y-105871428D01*
X132609404Y-105823809D01*
X133847500Y-106252380D02*
X133847500Y-105252380D01*
X133847500Y-105633333D02*
X133942738Y-105585714D01*
X134133214Y-105585714D01*
X134228452Y-105633333D01*
X134276071Y-105680952D01*
X134323690Y-105776190D01*
X134323690Y-106061904D01*
X134276071Y-106157142D01*
X134228452Y-106204761D01*
X134133214Y-106252380D01*
X133942738Y-106252380D01*
X133847500Y-106204761D01*
X134895119Y-106252380D02*
X134799880Y-106204761D01*
X134752261Y-106157142D01*
X134704642Y-106061904D01*
X134704642Y-105776190D01*
X134752261Y-105680952D01*
X134799880Y-105633333D01*
X134895119Y-105585714D01*
X135037976Y-105585714D01*
X135133214Y-105633333D01*
X135180833Y-105680952D01*
X135228452Y-105776190D01*
X135228452Y-106061904D01*
X135180833Y-106157142D01*
X135133214Y-106204761D01*
X135037976Y-106252380D01*
X134895119Y-106252380D01*
X135657023Y-106252380D02*
X135657023Y-105585714D01*
X135657023Y-105776190D02*
X135704642Y-105680952D01*
X135752261Y-105633333D01*
X135847500Y-105585714D01*
X135942738Y-105585714D01*
X136704642Y-106252380D02*
X136704642Y-105252380D01*
X136704642Y-106204761D02*
X136609404Y-106252380D01*
X136418928Y-106252380D01*
X136323690Y-106204761D01*
X136276071Y-106157142D01*
X136228452Y-106061904D01*
X136228452Y-105776190D01*
X136276071Y-105680952D01*
X136323690Y-105633333D01*
X136418928Y-105585714D01*
X136609404Y-105585714D01*
X136704642Y-105633333D01*
X137561785Y-106204761D02*
X137466547Y-106252380D01*
X137276071Y-106252380D01*
X137180833Y-106204761D01*
X137133214Y-106109523D01*
X137133214Y-105728571D01*
X137180833Y-105633333D01*
X137276071Y-105585714D01*
X137466547Y-105585714D01*
X137561785Y-105633333D01*
X137609404Y-105728571D01*
X137609404Y-105823809D01*
X137133214Y-105919047D01*
X138037976Y-106157142D02*
X138085595Y-106204761D01*
X138037976Y-106252380D01*
X137990357Y-106204761D01*
X138037976Y-106157142D01*
X138037976Y-106252380D01*
X138037976Y-105633333D02*
X138085595Y-105680952D01*
X138037976Y-105728571D01*
X137990357Y-105680952D01*
X138037976Y-105633333D01*
X138037976Y-105728571D01*
X139466547Y-105252380D02*
X139561785Y-105252380D01*
X139657023Y-105300000D01*
X139704642Y-105347619D01*
X139752261Y-105442857D01*
X139799880Y-105633333D01*
X139799880Y-105871428D01*
X139752261Y-106061904D01*
X139704642Y-106157142D01*
X139657023Y-106204761D01*
X139561785Y-106252380D01*
X139466547Y-106252380D01*
X139371309Y-106204761D01*
X139323690Y-106157142D01*
X139276071Y-106061904D01*
X139228452Y-105871428D01*
X139228452Y-105633333D01*
X139276071Y-105442857D01*
X139323690Y-105347619D01*
X139371309Y-105300000D01*
X139466547Y-105252380D01*
X140228452Y-106157142D02*
X140276071Y-106204761D01*
X140228452Y-106252380D01*
X140180833Y-106204761D01*
X140228452Y-106157142D01*
X140228452Y-106252380D01*
X141180833Y-105252380D02*
X140704642Y-105252380D01*
X140657023Y-105728571D01*
X140704642Y-105680952D01*
X140799880Y-105633333D01*
X141037976Y-105633333D01*
X141133214Y-105680952D01*
X141180833Y-105728571D01*
X141228452Y-105823809D01*
X141228452Y-106061904D01*
X141180833Y-106157142D01*
X141133214Y-106204761D01*
X141037976Y-106252380D01*
X140799880Y-106252380D01*
X140704642Y-106204761D01*
X140657023Y-106157142D01*
X142418928Y-106252380D02*
X142418928Y-105585714D01*
X142418928Y-105680952D02*
X142466547Y-105633333D01*
X142561785Y-105585714D01*
X142704642Y-105585714D01*
X142799880Y-105633333D01*
X142847500Y-105728571D01*
X142847500Y-106252380D01*
X142847500Y-105728571D02*
X142895119Y-105633333D01*
X142990357Y-105585714D01*
X143133214Y-105585714D01*
X143228452Y-105633333D01*
X143276071Y-105728571D01*
X143276071Y-106252380D01*
X143752261Y-106252380D02*
X143752261Y-105585714D01*
X143752261Y-105680952D02*
X143799880Y-105633333D01*
X143895119Y-105585714D01*
X144037976Y-105585714D01*
X144133214Y-105633333D01*
X144180833Y-105728571D01*
X144180833Y-106252380D01*
X144180833Y-105728571D02*
X144228452Y-105633333D01*
X144323690Y-105585714D01*
X144466547Y-105585714D01*
X144561785Y-105633333D01*
X144609404Y-105728571D01*
X144609404Y-106252380D01*
X127942738Y-106902380D02*
X128514166Y-106902380D01*
X128228452Y-107902380D02*
X128228452Y-106902380D01*
X129228452Y-107854761D02*
X129133214Y-107902380D01*
X128942738Y-107902380D01*
X128847500Y-107854761D01*
X128799880Y-107759523D01*
X128799880Y-107378571D01*
X128847500Y-107283333D01*
X128942738Y-107235714D01*
X129133214Y-107235714D01*
X129228452Y-107283333D01*
X129276071Y-107378571D01*
X129276071Y-107473809D01*
X128799880Y-107569047D01*
X129704642Y-107902380D02*
X129704642Y-107235714D01*
X129704642Y-107426190D02*
X129752261Y-107330952D01*
X129799880Y-107283333D01*
X129895119Y-107235714D01*
X129990357Y-107235714D01*
X130323690Y-107902380D02*
X130323690Y-107235714D01*
X130323690Y-107330952D02*
X130371309Y-107283333D01*
X130466547Y-107235714D01*
X130609404Y-107235714D01*
X130704642Y-107283333D01*
X130752261Y-107378571D01*
X130752261Y-107902380D01*
X130752261Y-107378571D02*
X130799880Y-107283333D01*
X130895119Y-107235714D01*
X131037976Y-107235714D01*
X131133214Y-107283333D01*
X131180833Y-107378571D01*
X131180833Y-107902380D01*
X131657023Y-107902380D02*
X131657023Y-107235714D01*
X131657023Y-106902380D02*
X131609404Y-106950000D01*
X131657023Y-106997619D01*
X131704642Y-106950000D01*
X131657023Y-106902380D01*
X131657023Y-106997619D01*
X132133214Y-107235714D02*
X132133214Y-107902380D01*
X132133214Y-107330952D02*
X132180833Y-107283333D01*
X132276071Y-107235714D01*
X132418928Y-107235714D01*
X132514166Y-107283333D01*
X132561785Y-107378571D01*
X132561785Y-107902380D01*
X133466547Y-107902380D02*
X133466547Y-107378571D01*
X133418928Y-107283333D01*
X133323690Y-107235714D01*
X133133214Y-107235714D01*
X133037976Y-107283333D01*
X133466547Y-107854761D02*
X133371309Y-107902380D01*
X133133214Y-107902380D01*
X133037976Y-107854761D01*
X132990357Y-107759523D01*
X132990357Y-107664285D01*
X133037976Y-107569047D01*
X133133214Y-107521428D01*
X133371309Y-107521428D01*
X133466547Y-107473809D01*
X134371309Y-107854761D02*
X134276071Y-107902380D01*
X134085595Y-107902380D01*
X133990357Y-107854761D01*
X133942738Y-107807142D01*
X133895119Y-107711904D01*
X133895119Y-107426190D01*
X133942738Y-107330952D01*
X133990357Y-107283333D01*
X134085595Y-107235714D01*
X134276071Y-107235714D01*
X134371309Y-107283333D01*
X134799880Y-107902380D02*
X134799880Y-107235714D01*
X134799880Y-106902380D02*
X134752261Y-106950000D01*
X134799880Y-106997619D01*
X134847500Y-106950000D01*
X134799880Y-106902380D01*
X134799880Y-106997619D01*
X135418928Y-107902380D02*
X135323690Y-107854761D01*
X135276071Y-107807142D01*
X135228452Y-107711904D01*
X135228452Y-107426190D01*
X135276071Y-107330952D01*
X135323690Y-107283333D01*
X135418928Y-107235714D01*
X135561785Y-107235714D01*
X135657023Y-107283333D01*
X135704642Y-107330952D01*
X135752261Y-107426190D01*
X135752261Y-107711904D01*
X135704642Y-107807142D01*
X135657023Y-107854761D01*
X135561785Y-107902380D01*
X135418928Y-107902380D01*
X135609404Y-106854761D02*
X135466547Y-106997619D01*
X136180833Y-107235714D02*
X136180833Y-107902380D01*
X136180833Y-107330952D02*
X136228452Y-107283333D01*
X136323690Y-107235714D01*
X136466547Y-107235714D01*
X136561785Y-107283333D01*
X136609404Y-107378571D01*
X136609404Y-107902380D01*
X137085595Y-107807142D02*
X137133214Y-107854761D01*
X137085595Y-107902380D01*
X137037976Y-107854761D01*
X137085595Y-107807142D01*
X137085595Y-107902380D01*
X137085595Y-107283333D02*
X137133214Y-107330952D01*
X137085595Y-107378571D01*
X137037976Y-107330952D01*
X137085595Y-107283333D01*
X137085595Y-107378571D01*
X138752261Y-107902380D02*
X138752261Y-107378571D01*
X138704642Y-107283333D01*
X138609404Y-107235714D01*
X138418928Y-107235714D01*
X138323690Y-107283333D01*
X138752261Y-107854761D02*
X138657023Y-107902380D01*
X138418928Y-107902380D01*
X138323690Y-107854761D01*
X138276071Y-107759523D01*
X138276071Y-107664285D01*
X138323690Y-107569047D01*
X138418928Y-107521428D01*
X138657023Y-107521428D01*
X138752261Y-107473809D01*
X140418928Y-107902380D02*
X140418928Y-106902380D01*
X140418928Y-107854761D02*
X140323690Y-107902380D01*
X140133214Y-107902380D01*
X140037976Y-107854761D01*
X139990357Y-107807142D01*
X139942738Y-107711904D01*
X139942738Y-107426190D01*
X139990357Y-107330952D01*
X140037976Y-107283333D01*
X140133214Y-107235714D01*
X140323690Y-107235714D01*
X140418928Y-107283333D01*
X141276071Y-107854761D02*
X141180833Y-107902380D01*
X140990357Y-107902380D01*
X140895119Y-107854761D01*
X140847500Y-107759523D01*
X140847500Y-107378571D01*
X140895119Y-107283333D01*
X140990357Y-107235714D01*
X141180833Y-107235714D01*
X141276071Y-107283333D01*
X141323690Y-107378571D01*
X141323690Y-107473809D01*
X140847500Y-107569047D01*
X141609404Y-107235714D02*
X141990357Y-107235714D01*
X141752261Y-106902380D02*
X141752261Y-107759523D01*
X141799880Y-107854761D01*
X141895119Y-107902380D01*
X141990357Y-107902380D01*
X142704642Y-107854761D02*
X142609404Y-107902380D01*
X142418928Y-107902380D01*
X142323690Y-107854761D01*
X142276071Y-107759523D01*
X142276071Y-107378571D01*
X142323690Y-107283333D01*
X142418928Y-107235714D01*
X142609404Y-107235714D01*
X142704642Y-107283333D01*
X142752261Y-107378571D01*
X142752261Y-107473809D01*
X142276071Y-107569047D01*
X143180833Y-107902380D02*
X143180833Y-107235714D01*
X143180833Y-107426190D02*
X143228452Y-107330952D01*
X143276071Y-107283333D01*
X143371309Y-107235714D01*
X143466547Y-107235714D01*
X143799880Y-107902380D02*
X143799880Y-107235714D01*
X143799880Y-107330952D02*
X143847500Y-107283333D01*
X143942738Y-107235714D01*
X144085595Y-107235714D01*
X144180833Y-107283333D01*
X144228452Y-107378571D01*
X144228452Y-107902380D01*
X144228452Y-107378571D02*
X144276071Y-107283333D01*
X144371309Y-107235714D01*
X144514166Y-107235714D01*
X144609404Y-107283333D01*
X144657023Y-107378571D01*
X144657023Y-107902380D01*
X145133214Y-107902380D02*
X145133214Y-107235714D01*
X145133214Y-106902380D02*
X145085595Y-106950000D01*
X145133214Y-106997619D01*
X145180833Y-106950000D01*
X145133214Y-106902380D01*
X145133214Y-106997619D01*
X145609404Y-107235714D02*
X145609404Y-107902380D01*
X145609404Y-107330952D02*
X145657023Y-107283333D01*
X145752261Y-107235714D01*
X145895119Y-107235714D01*
X145990357Y-107283333D01*
X146037976Y-107378571D01*
X146037976Y-107902380D01*
X146942738Y-107902380D02*
X146942738Y-107378571D01*
X146895119Y-107283333D01*
X146799880Y-107235714D01*
X146609404Y-107235714D01*
X146514166Y-107283333D01*
X146942738Y-107854761D02*
X146847500Y-107902380D01*
X146609404Y-107902380D01*
X146514166Y-107854761D01*
X146466547Y-107759523D01*
X146466547Y-107664285D01*
X146514166Y-107569047D01*
X146609404Y-107521428D01*
X146847500Y-107521428D01*
X146942738Y-107473809D01*
X147418928Y-107902380D02*
X147418928Y-107235714D01*
X147418928Y-107426190D02*
X147466547Y-107330952D01*
X147514166Y-107283333D01*
X147609404Y-107235714D01*
X147704642Y-107235714D01*
X93059523Y-132252380D02*
X93678571Y-132252380D01*
X93345238Y-132633333D01*
X93488095Y-132633333D01*
X93583333Y-132680952D01*
X93630952Y-132728571D01*
X93678571Y-132823809D01*
X93678571Y-133061904D01*
X93630952Y-133157142D01*
X93583333Y-133204761D01*
X93488095Y-133252380D01*
X93202380Y-133252380D01*
X93107142Y-133204761D01*
X93059523Y-133157142D01*
X94535714Y-132585714D02*
X94535714Y-133252380D01*
X94297619Y-132204761D02*
X94059523Y-132919047D01*
X94678571Y-132919047D01*
X95107142Y-133204761D02*
X95107142Y-133252380D01*
X95059523Y-133347619D01*
X95011904Y-133395238D01*
X96011904Y-132252380D02*
X95535714Y-132252380D01*
X95488095Y-132728571D01*
X95535714Y-132680952D01*
X95630952Y-132633333D01*
X95869047Y-132633333D01*
X95964285Y-132680952D01*
X96011904Y-132728571D01*
X96059523Y-132823809D01*
X96059523Y-133061904D01*
X96011904Y-133157142D01*
X95964285Y-133204761D01*
X95869047Y-133252380D01*
X95630952Y-133252380D01*
X95535714Y-133204761D01*
X95488095Y-133157142D01*
X96678571Y-132252380D02*
X96773809Y-132252380D01*
X96869047Y-132300000D01*
X96916666Y-132347619D01*
X96964285Y-132442857D01*
X97011904Y-132633333D01*
X97011904Y-132871428D01*
X96964285Y-133061904D01*
X96916666Y-133157142D01*
X96869047Y-133204761D01*
X96773809Y-133252380D01*
X96678571Y-133252380D01*
X96583333Y-133204761D01*
X96535714Y-133157142D01*
X96488095Y-133061904D01*
X96440476Y-132871428D01*
X96440476Y-132633333D01*
X96488095Y-132442857D01*
X96535714Y-132347619D01*
X96583333Y-132300000D01*
X96678571Y-132252380D01*
X97630952Y-132252380D02*
X97726190Y-132252380D01*
X97821428Y-132300000D01*
X97869047Y-132347619D01*
X97916666Y-132442857D01*
X97964285Y-132633333D01*
X97964285Y-132871428D01*
X97916666Y-133061904D01*
X97869047Y-133157142D01*
X97821428Y-133204761D01*
X97726190Y-133252380D01*
X97630952Y-133252380D01*
X97535714Y-133204761D01*
X97488095Y-133157142D01*
X97440476Y-133061904D01*
X97392857Y-132871428D01*
X97392857Y-132633333D01*
X97440476Y-132442857D01*
X97488095Y-132347619D01*
X97535714Y-132300000D01*
X97630952Y-132252380D01*
X99154761Y-133252380D02*
X99154761Y-132585714D01*
X99154761Y-132680952D02*
X99202380Y-132633333D01*
X99297619Y-132585714D01*
X99440476Y-132585714D01*
X99535714Y-132633333D01*
X99583333Y-132728571D01*
X99583333Y-133252380D01*
X99583333Y-132728571D02*
X99630952Y-132633333D01*
X99726190Y-132585714D01*
X99869047Y-132585714D01*
X99964285Y-132633333D01*
X100011904Y-132728571D01*
X100011904Y-133252380D01*
X100488095Y-133252380D02*
X100488095Y-132585714D01*
X100488095Y-132680952D02*
X100535714Y-132633333D01*
X100630952Y-132585714D01*
X100773809Y-132585714D01*
X100869047Y-132633333D01*
X100916666Y-132728571D01*
X100916666Y-133252380D01*
X100916666Y-132728571D02*
X100964285Y-132633333D01*
X101059523Y-132585714D01*
X101202380Y-132585714D01*
X101297619Y-132633333D01*
X101345238Y-132728571D01*
X101345238Y-133252380D01*
X114500000Y-131500000D02*
X80000000Y-131500000D01*
X114500000Y-126500000D02*
X114500000Y-132086421D01*
X80000000Y-126500000D02*
X80000000Y-132086421D01*
X80000000Y-131500000D02*
X81126504Y-130913579D01*
X80000000Y-131500000D02*
X81126504Y-132086421D01*
X114500000Y-131500000D02*
X113373496Y-130913579D01*
X114500000Y-131500000D02*
X113373496Y-132086421D01*
X125002380Y-108357142D02*
X125050000Y-108404761D01*
X125097619Y-108500000D01*
X125097619Y-108738095D01*
X125050000Y-108833333D01*
X125002380Y-108880952D01*
X124907142Y-108928571D01*
X124811904Y-108928571D01*
X124669047Y-108880952D01*
X124097619Y-108309523D01*
X124097619Y-108928571D01*
X124669047Y-109500000D02*
X124716666Y-109404761D01*
X124764285Y-109357142D01*
X124859523Y-109309523D01*
X124907142Y-109309523D01*
X125002380Y-109357142D01*
X125050000Y-109404761D01*
X125097619Y-109500000D01*
X125097619Y-109690476D01*
X125050000Y-109785714D01*
X125002380Y-109833333D01*
X124907142Y-109880952D01*
X124859523Y-109880952D01*
X124764285Y-109833333D01*
X124716666Y-109785714D01*
X124669047Y-109690476D01*
X124669047Y-109500000D01*
X124621428Y-109404761D01*
X124573809Y-109357142D01*
X124478571Y-109309523D01*
X124288095Y-109309523D01*
X124192857Y-109357142D01*
X124145238Y-109404761D01*
X124097619Y-109500000D01*
X124097619Y-109690476D01*
X124145238Y-109785714D01*
X124192857Y-109833333D01*
X124288095Y-109880952D01*
X124478571Y-109880952D01*
X124573809Y-109833333D01*
X124621428Y-109785714D01*
X124669047Y-109690476D01*
X124145238Y-110357142D02*
X124097619Y-110357142D01*
X124002380Y-110309523D01*
X123954761Y-110261904D01*
X125097619Y-110976190D02*
X125097619Y-111071428D01*
X125050000Y-111166666D01*
X125002380Y-111214285D01*
X124907142Y-111261904D01*
X124716666Y-111309523D01*
X124478571Y-111309523D01*
X124288095Y-111261904D01*
X124192857Y-111214285D01*
X124145238Y-111166666D01*
X124097619Y-111071428D01*
X124097619Y-110976190D01*
X124145238Y-110880952D01*
X124192857Y-110833333D01*
X124288095Y-110785714D01*
X124478571Y-110738095D01*
X124716666Y-110738095D01*
X124907142Y-110785714D01*
X125002380Y-110833333D01*
X125050000Y-110880952D01*
X125097619Y-110976190D01*
X125097619Y-111928571D02*
X125097619Y-112023809D01*
X125050000Y-112119047D01*
X125002380Y-112166666D01*
X124907142Y-112214285D01*
X124716666Y-112261904D01*
X124478571Y-112261904D01*
X124288095Y-112214285D01*
X124192857Y-112166666D01*
X124145238Y-112119047D01*
X124097619Y-112023809D01*
X124097619Y-111928571D01*
X124145238Y-111833333D01*
X124192857Y-111785714D01*
X124288095Y-111738095D01*
X124478571Y-111690476D01*
X124716666Y-111690476D01*
X124907142Y-111738095D01*
X125002380Y-111785714D01*
X125050000Y-111833333D01*
X125097619Y-111928571D01*
X125097619Y-112880952D02*
X125097619Y-112976190D01*
X125050000Y-113071428D01*
X125002380Y-113119047D01*
X124907142Y-113166666D01*
X124716666Y-113214285D01*
X124478571Y-113214285D01*
X124288095Y-113166666D01*
X124192857Y-113119047D01*
X124145238Y-113071428D01*
X124097619Y-112976190D01*
X124097619Y-112880952D01*
X124145238Y-112785714D01*
X124192857Y-112738095D01*
X124288095Y-112690476D01*
X124478571Y-112642857D01*
X124716666Y-112642857D01*
X124907142Y-112690476D01*
X125002380Y-112738095D01*
X125050000Y-112785714D01*
X125097619Y-112880952D01*
X124097619Y-114404761D02*
X124764285Y-114404761D01*
X124669047Y-114404761D02*
X124716666Y-114452380D01*
X124764285Y-114547619D01*
X124764285Y-114690476D01*
X124716666Y-114785714D01*
X124621428Y-114833333D01*
X124097619Y-114833333D01*
X124621428Y-114833333D02*
X124716666Y-114880952D01*
X124764285Y-114976190D01*
X124764285Y-115119047D01*
X124716666Y-115214285D01*
X124621428Y-115261904D01*
X124097619Y-115261904D01*
X124097619Y-115738095D02*
X124764285Y-115738095D01*
X124669047Y-115738095D02*
X124716666Y-115785714D01*
X124764285Y-115880952D01*
X124764285Y-116023809D01*
X124716666Y-116119047D01*
X124621428Y-116166666D01*
X124097619Y-116166666D01*
X124621428Y-116166666D02*
X124716666Y-116214285D01*
X124764285Y-116309523D01*
X124764285Y-116452380D01*
X124716666Y-116547619D01*
X124621428Y-116595238D01*
X124097619Y-116595238D01*
X123250000Y-98500000D02*
X123250000Y-126500000D01*
X114500000Y-98500000D02*
X123836421Y-98500000D01*
X114500000Y-126500000D02*
X123836421Y-126500000D01*
X123250000Y-126500000D02*
X122663579Y-125373496D01*
X123250000Y-126500000D02*
X123836421Y-125373496D01*
X123250000Y-98500000D02*
X122663579Y-99626504D01*
X123250000Y-98500000D02*
X123836421Y-99626504D01*
D11*
X80000000Y-126500000D02*
X80000000Y-98500000D01*
X114500000Y-126500000D02*
X80000000Y-126500000D01*
X114500000Y-98500000D02*
X114500000Y-126500000D01*
X80000000Y-98500000D02*
X114500000Y-98500000D01*
M02*
