M48
; DRILL file {KiCad 5.1.10-88a1d61d58~88~ubuntu18.04.1} date Tue Oct 12 23:29:29 2021
; FORMAT={-:-/ absolute / inch / decimal}
; #@! TF.CreationDate,2021-10-12T23:29:29-03:00
; #@! TF.GenerationSoftware,Kicad,Pcbnew,5.1.10-88a1d61d58~88~ubuntu18.04.1
; #@! TF.FileFunction,Plated,1,2,PTH
FMAT,2
INCH
T1C0.0079
T2C0.0157
T3C0.0315
T4C0.0362
T5C0.0394
T6C0.0866
T7C0.0906
%
G90
G05
T1
X3.7264Y-4.4646
X3.7264Y-4.5079
X3.7264Y-4.5512
X3.7697Y-4.4646
X3.7697Y-4.5079
X3.7697Y-4.5512
X3.813Y-4.4646
X3.813Y-4.5079
X3.813Y-4.5512
T2
X3.6024Y-4.065
X3.6024Y-4.7539
X3.6186Y-4.6816
X3.6417Y-4.5472
X3.6516Y-4.4488
X3.6811Y-4.7835
X3.7205Y-4.0453
X3.7266Y-4.3246
X3.7894Y-4.6457
X3.9075Y-4.7933
X4.0453Y-4.7933
X4.211Y-4.2535
X4.211Y-4.3913
T3
X4.0606Y-4.0497
X4.0812Y-4.748
T4
X4.1043Y-4.2323
X4.1043Y-4.3307
X4.1043Y-4.4094
X4.1043Y-4.5079
T5
X3.4252Y-3.9764
X3.4252Y-4.3504
X3.4252Y-4.4488
X3.5252Y-3.9764
X3.6252Y-3.9764
X3.7252Y-3.9764
X3.8252Y-3.9764
X3.9252Y-3.9764
T6
X3.2677Y-4.0354
X3.2677Y-4.7441
T7
X4.211Y-4.1114
X4.211Y-4.6287
T0
M30
