%TF.GenerationSoftware,KiCad,Pcbnew,5.1.10-88a1d61d58~88~ubuntu18.04.1*%
%TF.CreationDate,2021-10-12T23:30:59-03:00*%
%TF.ProjectId,ConversorDCDC,436f6e76-6572-4736-9f72-444344432e6b,1.0*%
%TF.SameCoordinates,Original*%
%TF.FileFunction,Other,Fab,Top*%
%FSLAX46Y46*%
G04 Gerber Fmt 4.6, Leading zero omitted, Abs format (unit mm)*
G04 Created by KiCad (PCBNEW 5.1.10-88a1d61d58~88~ubuntu18.04.1) date 2021-10-12 23:30:59*
%MOMM*%
%LPD*%
G01*
G04 APERTURE LIST*
%TA.AperFunction,Profile*%
%ADD10C,0.050000*%
%TD*%
%ADD11C,0.100000*%
%ADD12C,0.150000*%
%ADD13C,0.080000*%
%ADD14C,0.075000*%
%ADD15C,0.040000*%
G04 APERTURE END LIST*
D10*
X80000000Y-126500000D02*
X80000000Y-98500000D01*
X114500000Y-126500000D02*
X80000000Y-126500000D01*
X114500000Y-98500000D02*
X114500000Y-126500000D01*
X80000000Y-98500000D02*
X114500000Y-98500000D01*
D11*
%TO.C,LED1*%
X88000000Y-117850000D02*
X88000000Y-116650000D01*
X86000000Y-117850000D02*
X88000000Y-117850000D01*
X86000000Y-116950000D02*
X86000000Y-117850000D01*
X86300000Y-116650000D02*
X86000000Y-116950000D01*
X88000000Y-116650000D02*
X86300000Y-116650000D01*
%TO.C,R2*%
X92000000Y-114875000D02*
X90000000Y-114875000D01*
X92000000Y-113625000D02*
X92000000Y-114875000D01*
X90000000Y-113625000D02*
X92000000Y-113625000D01*
X90000000Y-114875000D02*
X90000000Y-113625000D01*
%TO.C,R5*%
X105625000Y-125000000D02*
X104375000Y-125000000D01*
X104375000Y-125000000D02*
X104375000Y-123000000D01*
X104375000Y-123000000D02*
X105625000Y-123000000D01*
X105625000Y-123000000D02*
X105625000Y-125000000D01*
%TO.C,R9*%
X101625000Y-118750000D02*
X101625000Y-120750000D01*
X100375000Y-118750000D02*
X101625000Y-118750000D01*
X100375000Y-120750000D02*
X100375000Y-118750000D01*
X101625000Y-120750000D02*
X100375000Y-120750000D01*
%TO.C,R13*%
X92000000Y-117625000D02*
X90000000Y-117625000D01*
X92000000Y-116375000D02*
X92000000Y-117625000D01*
X90000000Y-116375000D02*
X92000000Y-116375000D01*
X90000000Y-117625000D02*
X90000000Y-116375000D01*
%TO.C,L1*%
X95250000Y-103750000D02*
X100750000Y-103750000D01*
X101250000Y-104250000D02*
X101250000Y-109750000D01*
X100750000Y-110250000D02*
X95250000Y-110250000D01*
X94750000Y-109750000D02*
X94750000Y-104250000D01*
X94750000Y-104250000D02*
G75*
G02*
X95250000Y-103750000I500000J0D01*
G01*
X100750000Y-103750000D02*
G75*
G02*
X101250000Y-104250000I0J-500000D01*
G01*
X95250000Y-110250000D02*
G75*
G02*
X94750000Y-109750000I0J500000D01*
G01*
X101250000Y-109750000D02*
G75*
G02*
X100750000Y-110250000I-500000J0D01*
G01*
%TO.C,R4*%
X94375000Y-118750000D02*
X95625000Y-118750000D01*
X95625000Y-118750000D02*
X95625000Y-120750000D01*
X95625000Y-120750000D02*
X94375000Y-120750000D01*
X94375000Y-120750000D02*
X94375000Y-118750000D01*
%TO.C,C3*%
X97625000Y-123000000D02*
X98875000Y-123000000D01*
X98875000Y-123000000D02*
X98875000Y-125000000D01*
X98875000Y-125000000D02*
X97625000Y-125000000D01*
X97625000Y-125000000D02*
X97625000Y-123000000D01*
%TO.C,R3*%
X91875000Y-123000000D02*
X91875000Y-125000000D01*
X90625000Y-123000000D02*
X91875000Y-123000000D01*
X90625000Y-125000000D02*
X90625000Y-123000000D01*
X91875000Y-125000000D02*
X90625000Y-125000000D01*
%TO.C,T1*%
X88450000Y-124950000D02*
X88450000Y-122500000D01*
X87900000Y-125520000D02*
X87050000Y-125520000D01*
X88450000Y-124950000D02*
X87900000Y-125520000D01*
X87050000Y-125520000D02*
X87050000Y-122480000D01*
X88450000Y-122480000D02*
X87050000Y-122480000D01*
%TO.C,U1*%
X96750000Y-116500000D02*
X93750000Y-116500000D01*
X93750000Y-116500000D02*
X93750000Y-112500000D01*
X93750000Y-112500000D02*
X97750000Y-112500000D01*
X97750000Y-112500000D02*
X97750000Y-115500000D01*
X97750000Y-115500000D02*
X96750000Y-116500000D01*
%TO.C,X2*%
X86300000Y-114500000D02*
X88500000Y-114500000D01*
X88500000Y-114500000D02*
X88500000Y-115500000D01*
X88500000Y-115500000D02*
X80300000Y-115500000D01*
X80300000Y-115500000D02*
X80300000Y-108000000D01*
X80300000Y-108000000D02*
X88500000Y-108000000D01*
X88500000Y-108000000D02*
X88500000Y-109000000D01*
X88500000Y-109000000D02*
X86300000Y-109000000D01*
X86300000Y-109000000D02*
X86300000Y-114500000D01*
X86300000Y-113500000D02*
X85592893Y-113000000D01*
X85592893Y-113000000D02*
X86300000Y-112500000D01*
%TO.C,JP1*%
X85730000Y-101635000D02*
X85730000Y-99730000D01*
X85730000Y-99730000D02*
X100970000Y-99730000D01*
X100970000Y-99730000D02*
X100970000Y-102270000D01*
X100970000Y-102270000D02*
X86365000Y-102270000D01*
X86365000Y-102270000D02*
X85730000Y-101635000D01*
%TO.C,R10*%
X110250000Y-101375000D02*
X110250000Y-100125000D01*
X110250000Y-100125000D02*
X112250000Y-100125000D01*
X112250000Y-100125000D02*
X112250000Y-101375000D01*
X112250000Y-101375000D02*
X110250000Y-101375000D01*
%TO.C,R1*%
X90000000Y-111875000D02*
X90000000Y-110625000D01*
X90000000Y-110625000D02*
X92000000Y-110625000D01*
X92000000Y-110625000D02*
X92000000Y-111875000D01*
X92000000Y-111875000D02*
X90000000Y-111875000D01*
%TO.C,R12*%
X101625000Y-114500000D02*
X100375000Y-114500000D01*
X100375000Y-114500000D02*
X100375000Y-112500000D01*
X100375000Y-112500000D02*
X101625000Y-112500000D01*
X101625000Y-112500000D02*
X101625000Y-114500000D01*
%TO.C,C4*%
X93125000Y-104450000D02*
X93125000Y-106450000D01*
X91875000Y-104450000D02*
X93125000Y-104450000D01*
X91875000Y-106450000D02*
X91875000Y-104450000D01*
X93125000Y-106450000D02*
X91875000Y-106450000D01*
%TO.C,C6*%
X101125000Y-123000000D02*
X102375000Y-123000000D01*
X102375000Y-123000000D02*
X102375000Y-125000000D01*
X102375000Y-125000000D02*
X101125000Y-125000000D01*
X101125000Y-125000000D02*
X101125000Y-123000000D01*
%TO.C,R20*%
X88375000Y-121250000D02*
X87125000Y-121250000D01*
X87125000Y-121250000D02*
X87125000Y-119250000D01*
X87125000Y-119250000D02*
X88375000Y-119250000D01*
X88375000Y-119250000D02*
X88375000Y-121250000D01*
%TO.C,FID1*%
X83500000Y-106500000D02*
G75*
G03*
X83500000Y-106500000I-500000J0D01*
G01*
%TO.C,R11*%
X107750000Y-101375000D02*
X105750000Y-101375000D01*
X107750000Y-100125000D02*
X107750000Y-101375000D01*
X105750000Y-100125000D02*
X107750000Y-100125000D01*
X105750000Y-101375000D02*
X105750000Y-100125000D01*
%TO.C,LED2*%
X109350000Y-125000000D02*
X109350000Y-123300000D01*
X109350000Y-123300000D02*
X109050000Y-123000000D01*
X109050000Y-123000000D02*
X108150000Y-123000000D01*
X108150000Y-123000000D02*
X108150000Y-125000000D01*
X108150000Y-125000000D02*
X109350000Y-125000000D01*
%TO.C,FID2*%
X84750000Y-125000000D02*
G75*
G03*
X84750000Y-125000000I-500000J0D01*
G01*
%TO.C,C1*%
X89875000Y-106450000D02*
X88625000Y-106450000D01*
X88625000Y-106450000D02*
X88625000Y-104450000D01*
X88625000Y-104450000D02*
X89875000Y-104450000D01*
X89875000Y-104450000D02*
X89875000Y-106450000D01*
%TO.C,C2*%
X96875000Y-120750000D02*
X96875000Y-118750000D01*
X98125000Y-120750000D02*
X96875000Y-120750000D01*
X98125000Y-118750000D02*
X98125000Y-120750000D01*
X96875000Y-118750000D02*
X98125000Y-118750000D01*
%TO.C,CN1*%
X104120000Y-118250000D02*
X117240000Y-118250000D01*
X103240000Y-103750000D02*
X117240000Y-103750000D01*
X103240000Y-117370000D02*
X103240000Y-103750000D01*
X117240000Y-118250000D02*
X117240000Y-103750000D01*
X103240000Y-117370000D02*
X104120000Y-118250000D01*
%TD*%
%TO.C,LED1*%
D12*
X86357142Y-119352380D02*
X86023809Y-118876190D01*
X85785714Y-119352380D02*
X85785714Y-118352380D01*
X86166666Y-118352380D01*
X86261904Y-118400000D01*
X86309523Y-118447619D01*
X86357142Y-118542857D01*
X86357142Y-118685714D01*
X86309523Y-118780952D01*
X86261904Y-118828571D01*
X86166666Y-118876190D01*
X85785714Y-118876190D01*
X86785714Y-118828571D02*
X87119047Y-118828571D01*
X87261904Y-119352380D02*
X86785714Y-119352380D01*
X86785714Y-118352380D01*
X87261904Y-118352380D01*
X87690476Y-119352380D02*
X87690476Y-118352380D01*
X87928571Y-118352380D01*
X88071428Y-118400000D01*
X88166666Y-118495238D01*
X88214285Y-118590476D01*
X88261904Y-118780952D01*
X88261904Y-118923809D01*
X88214285Y-119114285D01*
X88166666Y-119209523D01*
X88071428Y-119304761D01*
X87928571Y-119352380D01*
X87690476Y-119352380D01*
D13*
X86440476Y-117476190D02*
X86202380Y-117476190D01*
X86202380Y-116976190D01*
X86607142Y-117214285D02*
X86773809Y-117214285D01*
X86845238Y-117476190D02*
X86607142Y-117476190D01*
X86607142Y-116976190D01*
X86845238Y-116976190D01*
X87059523Y-117476190D02*
X87059523Y-116976190D01*
X87178571Y-116976190D01*
X87250000Y-117000000D01*
X87297619Y-117047619D01*
X87321428Y-117095238D01*
X87345238Y-117190476D01*
X87345238Y-117261904D01*
X87321428Y-117357142D01*
X87297619Y-117404761D01*
X87250000Y-117452380D01*
X87178571Y-117476190D01*
X87059523Y-117476190D01*
X87821428Y-117476190D02*
X87535714Y-117476190D01*
X87678571Y-117476190D02*
X87678571Y-116976190D01*
X87630952Y-117047619D01*
X87583333Y-117095238D01*
X87535714Y-117119047D01*
%TO.C,R2*%
X90821665Y-113476190D02*
X90654999Y-113238095D01*
X90535951Y-113476190D02*
X90535951Y-112976190D01*
X90726427Y-112976190D01*
X90774046Y-113000000D01*
X90797856Y-113023809D01*
X90821665Y-113071428D01*
X90821665Y-113142857D01*
X90797856Y-113190476D01*
X90774046Y-113214285D01*
X90726427Y-113238095D01*
X90535951Y-113238095D01*
X91012141Y-113023809D02*
X91035951Y-113000000D01*
X91083570Y-112976190D01*
X91202618Y-112976190D01*
X91250237Y-113000000D01*
X91274046Y-113023809D01*
X91297856Y-113071428D01*
X91297856Y-113119047D01*
X91274046Y-113190476D01*
X90988332Y-113476190D01*
X91297856Y-113476190D01*
%TO.C,H1*%
D12*
X82538095Y-102952380D02*
X82538095Y-101952380D01*
X82538095Y-102428571D02*
X83109523Y-102428571D01*
X83109523Y-102952380D02*
X83109523Y-101952380D01*
X84109523Y-102952380D02*
X83538095Y-102952380D01*
X83823809Y-102952380D02*
X83823809Y-101952380D01*
X83728571Y-102095238D01*
X83633333Y-102190476D01*
X83538095Y-102238095D01*
%TO.C,R5*%
X107102380Y-124214285D02*
X107102380Y-124785714D01*
X107102380Y-124500000D02*
X106102380Y-124500000D01*
X106245238Y-124595238D01*
X106340476Y-124690476D01*
X106388095Y-124785714D01*
X107102380Y-123785714D02*
X106102380Y-123785714D01*
X107102380Y-123214285D02*
X106530952Y-123642857D01*
X106102380Y-123214285D02*
X106673809Y-123785714D01*
D13*
X105226190Y-124083333D02*
X104988095Y-124250000D01*
X105226190Y-124369047D02*
X104726190Y-124369047D01*
X104726190Y-124178571D01*
X104750000Y-124130952D01*
X104773809Y-124107142D01*
X104821428Y-124083333D01*
X104892857Y-124083333D01*
X104940476Y-124107142D01*
X104964285Y-124130952D01*
X104988095Y-124178571D01*
X104988095Y-124369047D01*
X104726190Y-123630952D02*
X104726190Y-123869047D01*
X104964285Y-123892857D01*
X104940476Y-123869047D01*
X104916666Y-123821428D01*
X104916666Y-123702380D01*
X104940476Y-123654761D01*
X104964285Y-123630952D01*
X105011904Y-123607142D01*
X105130952Y-123607142D01*
X105178571Y-123630952D01*
X105202380Y-123654761D01*
X105226190Y-123702380D01*
X105226190Y-123821428D01*
X105202380Y-123869047D01*
X105178571Y-123892857D01*
%TO.C,R9*%
D12*
X102435714Y-120535714D02*
X103102380Y-120535714D01*
X102054761Y-120773809D02*
X102769047Y-121011904D01*
X102769047Y-120392857D01*
X102102380Y-120107142D02*
X102102380Y-119488095D01*
X102483333Y-119821428D01*
X102483333Y-119678571D01*
X102530952Y-119583333D01*
X102578571Y-119535714D01*
X102673809Y-119488095D01*
X102911904Y-119488095D01*
X103007142Y-119535714D01*
X103054761Y-119583333D01*
X103102380Y-119678571D01*
X103102380Y-119964285D01*
X103054761Y-120059523D01*
X103007142Y-120107142D01*
X103102380Y-119059523D02*
X102102380Y-119059523D01*
X103102380Y-118488095D02*
X102530952Y-118916666D01*
X102102380Y-118488095D02*
X102673809Y-119059523D01*
D13*
X101226190Y-119833333D02*
X100988095Y-120000000D01*
X101226190Y-120119047D02*
X100726190Y-120119047D01*
X100726190Y-119928571D01*
X100750000Y-119880952D01*
X100773809Y-119857142D01*
X100821428Y-119833333D01*
X100892857Y-119833333D01*
X100940476Y-119857142D01*
X100964285Y-119880952D01*
X100988095Y-119928571D01*
X100988095Y-120119047D01*
X101226190Y-119595238D02*
X101226190Y-119500000D01*
X101202380Y-119452380D01*
X101178571Y-119428571D01*
X101107142Y-119380952D01*
X101011904Y-119357142D01*
X100821428Y-119357142D01*
X100773809Y-119380952D01*
X100750000Y-119404761D01*
X100726190Y-119452380D01*
X100726190Y-119547619D01*
X100750000Y-119595238D01*
X100773809Y-119619047D01*
X100821428Y-119642857D01*
X100940476Y-119642857D01*
X100988095Y-119619047D01*
X101011904Y-119595238D01*
X101035714Y-119547619D01*
X101035714Y-119452380D01*
X101011904Y-119404761D01*
X100988095Y-119380952D01*
X100940476Y-119357142D01*
%TO.C,R13*%
D12*
X89261904Y-118197619D02*
X89309523Y-118150000D01*
X89404761Y-118102380D01*
X89642857Y-118102380D01*
X89738095Y-118150000D01*
X89785714Y-118197619D01*
X89833333Y-118292857D01*
X89833333Y-118388095D01*
X89785714Y-118530952D01*
X89214285Y-119102380D01*
X89833333Y-119102380D01*
X90452380Y-118102380D02*
X90547619Y-118102380D01*
X90642857Y-118150000D01*
X90690476Y-118197619D01*
X90738095Y-118292857D01*
X90785714Y-118483333D01*
X90785714Y-118721428D01*
X90738095Y-118911904D01*
X90690476Y-119007142D01*
X90642857Y-119054761D01*
X90547619Y-119102380D01*
X90452380Y-119102380D01*
X90357142Y-119054761D01*
X90309523Y-119007142D01*
X90261904Y-118911904D01*
X90214285Y-118721428D01*
X90214285Y-118483333D01*
X90261904Y-118292857D01*
X90309523Y-118197619D01*
X90357142Y-118150000D01*
X90452380Y-118102380D01*
X91404761Y-118102380D02*
X91500000Y-118102380D01*
X91595238Y-118150000D01*
X91642857Y-118197619D01*
X91690476Y-118292857D01*
X91738095Y-118483333D01*
X91738095Y-118721428D01*
X91690476Y-118911904D01*
X91642857Y-119007142D01*
X91595238Y-119054761D01*
X91500000Y-119102380D01*
X91404761Y-119102380D01*
X91309523Y-119054761D01*
X91261904Y-119007142D01*
X91214285Y-118911904D01*
X91166666Y-118721428D01*
X91166666Y-118483333D01*
X91214285Y-118292857D01*
X91261904Y-118197619D01*
X91309523Y-118150000D01*
X91404761Y-118102380D01*
X92166666Y-119102380D02*
X92166666Y-118102380D01*
X92738095Y-119102380D02*
X92309523Y-118530952D01*
X92738095Y-118102380D02*
X92166666Y-118673809D01*
D13*
X90678571Y-116226190D02*
X90511904Y-115988095D01*
X90392857Y-116226190D02*
X90392857Y-115726190D01*
X90583333Y-115726190D01*
X90630952Y-115750000D01*
X90654761Y-115773809D01*
X90678571Y-115821428D01*
X90678571Y-115892857D01*
X90654761Y-115940476D01*
X90630952Y-115964285D01*
X90583333Y-115988095D01*
X90392857Y-115988095D01*
X91154761Y-116226190D02*
X90869047Y-116226190D01*
X91011904Y-116226190D02*
X91011904Y-115726190D01*
X90964285Y-115797619D01*
X90916666Y-115845238D01*
X90869047Y-115869047D01*
X91321428Y-115726190D02*
X91630952Y-115726190D01*
X91464285Y-115916666D01*
X91535714Y-115916666D01*
X91583333Y-115940476D01*
X91607142Y-115964285D01*
X91630952Y-116011904D01*
X91630952Y-116130952D01*
X91607142Y-116178571D01*
X91583333Y-116202380D01*
X91535714Y-116226190D01*
X91392857Y-116226190D01*
X91345238Y-116202380D01*
X91321428Y-116178571D01*
%TO.C,L1*%
D12*
X97833333Y-106452380D02*
X97357142Y-106452380D01*
X97357142Y-105452380D01*
X98690476Y-106452380D02*
X98119047Y-106452380D01*
X98404761Y-106452380D02*
X98404761Y-105452380D01*
X98309523Y-105595238D01*
X98214285Y-105690476D01*
X98119047Y-105738095D01*
%TO.C,R4*%
X92897619Y-121488095D02*
X92850000Y-121440476D01*
X92802380Y-121345238D01*
X92802380Y-121107142D01*
X92850000Y-121011904D01*
X92897619Y-120964285D01*
X92992857Y-120916666D01*
X93088095Y-120916666D01*
X93230952Y-120964285D01*
X93802380Y-121535714D01*
X93802380Y-120916666D01*
X92802380Y-120297619D02*
X92802380Y-120202380D01*
X92850000Y-120107142D01*
X92897619Y-120059523D01*
X92992857Y-120011904D01*
X93183333Y-119964285D01*
X93421428Y-119964285D01*
X93611904Y-120011904D01*
X93707142Y-120059523D01*
X93754761Y-120107142D01*
X93802380Y-120202380D01*
X93802380Y-120297619D01*
X93754761Y-120392857D01*
X93707142Y-120440476D01*
X93611904Y-120488095D01*
X93421428Y-120535714D01*
X93183333Y-120535714D01*
X92992857Y-120488095D01*
X92897619Y-120440476D01*
X92850000Y-120392857D01*
X92802380Y-120297619D01*
X92802380Y-119345238D02*
X92802380Y-119250000D01*
X92850000Y-119154761D01*
X92897619Y-119107142D01*
X92992857Y-119059523D01*
X93183333Y-119011904D01*
X93421428Y-119011904D01*
X93611904Y-119059523D01*
X93707142Y-119107142D01*
X93754761Y-119154761D01*
X93802380Y-119250000D01*
X93802380Y-119345238D01*
X93754761Y-119440476D01*
X93707142Y-119488095D01*
X93611904Y-119535714D01*
X93421428Y-119583333D01*
X93183333Y-119583333D01*
X92992857Y-119535714D01*
X92897619Y-119488095D01*
X92850000Y-119440476D01*
X92802380Y-119345238D01*
X93802380Y-118583333D02*
X92802380Y-118583333D01*
X93802380Y-118011904D02*
X93230952Y-118440476D01*
X92802380Y-118011904D02*
X93373809Y-118583333D01*
D13*
X95226190Y-119833333D02*
X94988095Y-120000000D01*
X95226190Y-120119047D02*
X94726190Y-120119047D01*
X94726190Y-119928571D01*
X94750000Y-119880952D01*
X94773809Y-119857142D01*
X94821428Y-119833333D01*
X94892857Y-119833333D01*
X94940476Y-119857142D01*
X94964285Y-119880952D01*
X94988095Y-119928571D01*
X94988095Y-120119047D01*
X94892857Y-119404761D02*
X95226190Y-119404761D01*
X94702380Y-119523809D02*
X95059523Y-119642857D01*
X95059523Y-119333333D01*
%TO.C,C3*%
D12*
X97022380Y-125547619D02*
X97022380Y-126119047D01*
X97022380Y-125833333D02*
X96022380Y-125833333D01*
X96165238Y-125928571D01*
X96260476Y-126023809D01*
X96308095Y-126119047D01*
X96022380Y-124928571D02*
X96022380Y-124833333D01*
X96070000Y-124738095D01*
X96117619Y-124690476D01*
X96212857Y-124642857D01*
X96403333Y-124595238D01*
X96641428Y-124595238D01*
X96831904Y-124642857D01*
X96927142Y-124690476D01*
X96974761Y-124738095D01*
X97022380Y-124833333D01*
X97022380Y-124928571D01*
X96974761Y-125023809D01*
X96927142Y-125071428D01*
X96831904Y-125119047D01*
X96641428Y-125166666D01*
X96403333Y-125166666D01*
X96212857Y-125119047D01*
X96117619Y-125071428D01*
X96070000Y-125023809D01*
X96022380Y-124928571D01*
X96022380Y-123976190D02*
X96022380Y-123880952D01*
X96070000Y-123785714D01*
X96117619Y-123738095D01*
X96212857Y-123690476D01*
X96403333Y-123642857D01*
X96641428Y-123642857D01*
X96831904Y-123690476D01*
X96927142Y-123738095D01*
X96974761Y-123785714D01*
X97022380Y-123880952D01*
X97022380Y-123976190D01*
X96974761Y-124071428D01*
X96927142Y-124119047D01*
X96831904Y-124166666D01*
X96641428Y-124214285D01*
X96403333Y-124214285D01*
X96212857Y-124166666D01*
X96117619Y-124119047D01*
X96070000Y-124071428D01*
X96022380Y-123976190D01*
X96355714Y-122785714D02*
X97022380Y-122785714D01*
X96355714Y-123214285D02*
X96879523Y-123214285D01*
X96974761Y-123166666D01*
X97022380Y-123071428D01*
X97022380Y-122928571D01*
X96974761Y-122833333D01*
X96927142Y-122785714D01*
X96498571Y-121976190D02*
X96498571Y-122309523D01*
X97022380Y-122309523D02*
X96022380Y-122309523D01*
X96022380Y-121833333D01*
D13*
X98428571Y-124083333D02*
X98452380Y-124107142D01*
X98476190Y-124178571D01*
X98476190Y-124226190D01*
X98452380Y-124297619D01*
X98404761Y-124345238D01*
X98357142Y-124369047D01*
X98261904Y-124392857D01*
X98190476Y-124392857D01*
X98095238Y-124369047D01*
X98047619Y-124345238D01*
X98000000Y-124297619D01*
X97976190Y-124226190D01*
X97976190Y-124178571D01*
X98000000Y-124107142D01*
X98023809Y-124083333D01*
X97976190Y-123916666D02*
X97976190Y-123607142D01*
X98166666Y-123773809D01*
X98166666Y-123702380D01*
X98190476Y-123654761D01*
X98214285Y-123630952D01*
X98261904Y-123607142D01*
X98380952Y-123607142D01*
X98428571Y-123630952D01*
X98452380Y-123654761D01*
X98476190Y-123702380D01*
X98476190Y-123845238D01*
X98452380Y-123892857D01*
X98428571Y-123916666D01*
%TO.C,R3*%
X91476190Y-124083333D02*
X91238095Y-124250000D01*
X91476190Y-124369047D02*
X90976190Y-124369047D01*
X90976190Y-124178571D01*
X91000000Y-124130952D01*
X91023809Y-124107142D01*
X91071428Y-124083333D01*
X91142857Y-124083333D01*
X91190476Y-124107142D01*
X91214285Y-124130952D01*
X91238095Y-124178571D01*
X91238095Y-124369047D01*
X90976190Y-123916666D02*
X90976190Y-123607142D01*
X91166666Y-123773809D01*
X91166666Y-123702380D01*
X91190476Y-123654761D01*
X91214285Y-123630952D01*
X91261904Y-123607142D01*
X91380952Y-123607142D01*
X91428571Y-123630952D01*
X91452380Y-123654761D01*
X91476190Y-123702380D01*
X91476190Y-123845238D01*
X91452380Y-123892857D01*
X91428571Y-123916666D01*
%TO.C,T1*%
D12*
X82130952Y-121952380D02*
X82130952Y-120952380D01*
X82464285Y-121666666D01*
X82797619Y-120952380D01*
X82797619Y-121952380D01*
X83273809Y-121952380D02*
X83273809Y-120952380D01*
X83607142Y-121666666D01*
X83940476Y-120952380D01*
X83940476Y-121952380D01*
X84416666Y-120952380D02*
X84416666Y-121761904D01*
X84464285Y-121857142D01*
X84511904Y-121904761D01*
X84607142Y-121952380D01*
X84797619Y-121952380D01*
X84892857Y-121904761D01*
X84940476Y-121857142D01*
X84988095Y-121761904D01*
X84988095Y-120952380D01*
X85464285Y-121952380D02*
X85464285Y-120952380D01*
X86035714Y-121952380D01*
X86035714Y-120952380D01*
X86464285Y-121047619D02*
X86511904Y-121000000D01*
X86607142Y-120952380D01*
X86845238Y-120952380D01*
X86940476Y-121000000D01*
X86988095Y-121047619D01*
X87035714Y-121142857D01*
X87035714Y-121238095D01*
X86988095Y-121380952D01*
X86416666Y-121952380D01*
X87035714Y-121952380D01*
X87988095Y-121952380D02*
X87416666Y-121952380D01*
X87702380Y-121952380D02*
X87702380Y-120952380D01*
X87607142Y-121095238D01*
X87511904Y-121190476D01*
X87416666Y-121238095D01*
X88321428Y-120952380D02*
X88940476Y-120952380D01*
X88607142Y-121333333D01*
X88750000Y-121333333D01*
X88845238Y-121380952D01*
X88892857Y-121428571D01*
X88940476Y-121523809D01*
X88940476Y-121761904D01*
X88892857Y-121857142D01*
X88845238Y-121904761D01*
X88750000Y-121952380D01*
X88464285Y-121952380D01*
X88369047Y-121904761D01*
X88321428Y-121857142D01*
X89273809Y-120952380D02*
X89892857Y-120952380D01*
X89559523Y-121333333D01*
X89702380Y-121333333D01*
X89797619Y-121380952D01*
X89845238Y-121428571D01*
X89892857Y-121523809D01*
X89892857Y-121761904D01*
X89845238Y-121857142D01*
X89797619Y-121904761D01*
X89702380Y-121952380D01*
X89416666Y-121952380D01*
X89321428Y-121904761D01*
X89273809Y-121857142D01*
X90797619Y-121952380D02*
X90321428Y-121952380D01*
X90321428Y-120952380D01*
X90988095Y-120952380D02*
X91559523Y-120952380D01*
X91273809Y-121952380D02*
X91273809Y-120952380D01*
X92416666Y-121952380D02*
X91845238Y-121952380D01*
X92130952Y-121952380D02*
X92130952Y-120952380D01*
X92035714Y-121095238D01*
X91940476Y-121190476D01*
X91845238Y-121238095D01*
X93369047Y-121000000D02*
X93273809Y-120952380D01*
X93130952Y-120952380D01*
X92988095Y-121000000D01*
X92892857Y-121095238D01*
X92845238Y-121190476D01*
X92797619Y-121380952D01*
X92797619Y-121523809D01*
X92845238Y-121714285D01*
X92892857Y-121809523D01*
X92988095Y-121904761D01*
X93130952Y-121952380D01*
X93226190Y-121952380D01*
X93369047Y-121904761D01*
X93416666Y-121857142D01*
X93416666Y-121523809D01*
X93226190Y-121523809D01*
D14*
X87476190Y-124380952D02*
X87476190Y-124095238D01*
X87976190Y-124238095D02*
X87476190Y-124238095D01*
X87976190Y-123666666D02*
X87976190Y-123952380D01*
X87976190Y-123809523D02*
X87476190Y-123809523D01*
X87547619Y-123857142D01*
X87595238Y-123904761D01*
X87619047Y-123952380D01*
%TO.C,U1*%
D12*
X94988095Y-113952380D02*
X94988095Y-114761904D01*
X95035714Y-114857142D01*
X95083333Y-114904761D01*
X95178571Y-114952380D01*
X95369047Y-114952380D01*
X95464285Y-114904761D01*
X95511904Y-114857142D01*
X95559523Y-114761904D01*
X95559523Y-113952380D01*
X96559523Y-114952380D02*
X95988095Y-114952380D01*
X96273809Y-114952380D02*
X96273809Y-113952380D01*
X96178571Y-114095238D01*
X96083333Y-114190476D01*
X95988095Y-114238095D01*
%TO.C,X2*%
X83852380Y-112559523D02*
X84852380Y-111892857D01*
X83852380Y-111892857D02*
X84852380Y-112559523D01*
X83947619Y-111559523D02*
X83900000Y-111511904D01*
X83852380Y-111416666D01*
X83852380Y-111178571D01*
X83900000Y-111083333D01*
X83947619Y-111035714D01*
X84042857Y-110988095D01*
X84138095Y-110988095D01*
X84280952Y-111035714D01*
X84852380Y-111607142D01*
X84852380Y-110988095D01*
%TO.C,H2*%
X82238095Y-120952380D02*
X82238095Y-119952380D01*
X82238095Y-120428571D02*
X82809523Y-120428571D01*
X82809523Y-120952380D02*
X82809523Y-119952380D01*
X83238095Y-120047619D02*
X83285714Y-120000000D01*
X83380952Y-119952380D01*
X83619047Y-119952380D01*
X83714285Y-120000000D01*
X83761904Y-120047619D01*
X83809523Y-120142857D01*
X83809523Y-120238095D01*
X83761904Y-120380952D01*
X83190476Y-120952380D01*
X83809523Y-120952380D01*
%TO.C,JP1*%
X101916666Y-99452380D02*
X101916666Y-100166666D01*
X101869047Y-100309523D01*
X101773809Y-100404761D01*
X101630952Y-100452380D01*
X101535714Y-100452380D01*
X102392857Y-100452380D02*
X102392857Y-99452380D01*
X102773809Y-99452380D01*
X102869047Y-99500000D01*
X102916666Y-99547619D01*
X102964285Y-99642857D01*
X102964285Y-99785714D01*
X102916666Y-99880952D01*
X102869047Y-99928571D01*
X102773809Y-99976190D01*
X102392857Y-99976190D01*
X103916666Y-100452380D02*
X103345238Y-100452380D01*
X103630952Y-100452380D02*
X103630952Y-99452380D01*
X103535714Y-99595238D01*
X103440476Y-99690476D01*
X103345238Y-99738095D01*
%TO.C,R10*%
D13*
X110928571Y-102226190D02*
X110761904Y-101988095D01*
X110642857Y-102226190D02*
X110642857Y-101726190D01*
X110833333Y-101726190D01*
X110880952Y-101750000D01*
X110904761Y-101773809D01*
X110928571Y-101821428D01*
X110928571Y-101892857D01*
X110904761Y-101940476D01*
X110880952Y-101964285D01*
X110833333Y-101988095D01*
X110642857Y-101988095D01*
X111404761Y-102226190D02*
X111119047Y-102226190D01*
X111261904Y-102226190D02*
X111261904Y-101726190D01*
X111214285Y-101797619D01*
X111166666Y-101845238D01*
X111119047Y-101869047D01*
X111714285Y-101726190D02*
X111761904Y-101726190D01*
X111809523Y-101750000D01*
X111833333Y-101773809D01*
X111857142Y-101821428D01*
X111880952Y-101916666D01*
X111880952Y-102035714D01*
X111857142Y-102130952D01*
X111833333Y-102178571D01*
X111809523Y-102202380D01*
X111761904Y-102226190D01*
X111714285Y-102226190D01*
X111666666Y-102202380D01*
X111642857Y-102178571D01*
X111619047Y-102130952D01*
X111595238Y-102035714D01*
X111595238Y-101916666D01*
X111619047Y-101821428D01*
X111642857Y-101773809D01*
X111666666Y-101750000D01*
X111714285Y-101726190D01*
%TO.C,R1*%
X90916666Y-110476190D02*
X90750000Y-110238095D01*
X90630952Y-110476190D02*
X90630952Y-109976190D01*
X90821428Y-109976190D01*
X90869047Y-110000000D01*
X90892857Y-110023809D01*
X90916666Y-110071428D01*
X90916666Y-110142857D01*
X90892857Y-110190476D01*
X90869047Y-110214285D01*
X90821428Y-110238095D01*
X90630952Y-110238095D01*
X91392857Y-110476190D02*
X91107142Y-110476190D01*
X91250000Y-110476190D02*
X91250000Y-109976190D01*
X91202380Y-110047619D01*
X91154761Y-110095238D01*
X91107142Y-110119047D01*
%TO.C,R12*%
D12*
X102102380Y-114238095D02*
X102102380Y-114714285D01*
X102578571Y-114761904D01*
X102530952Y-114714285D01*
X102483333Y-114619047D01*
X102483333Y-114380952D01*
X102530952Y-114285714D01*
X102578571Y-114238095D01*
X102673809Y-114190476D01*
X102911904Y-114190476D01*
X103007142Y-114238095D01*
X103054761Y-114285714D01*
X103102380Y-114380952D01*
X103102380Y-114619047D01*
X103054761Y-114714285D01*
X103007142Y-114761904D01*
X102102380Y-113571428D02*
X102102380Y-113476190D01*
X102150000Y-113380952D01*
X102197619Y-113333333D01*
X102292857Y-113285714D01*
X102483333Y-113238095D01*
X102721428Y-113238095D01*
X102911904Y-113285714D01*
X103007142Y-113333333D01*
X103054761Y-113380952D01*
X103102380Y-113476190D01*
X103102380Y-113571428D01*
X103054761Y-113666666D01*
X103007142Y-113714285D01*
X102911904Y-113761904D01*
X102721428Y-113809523D01*
X102483333Y-113809523D01*
X102292857Y-113761904D01*
X102197619Y-113714285D01*
X102150000Y-113666666D01*
X102102380Y-113571428D01*
X103102380Y-112809523D02*
X102102380Y-112809523D01*
X103102380Y-112238095D02*
X102530952Y-112666666D01*
X102102380Y-112238095D02*
X102673809Y-112809523D01*
D13*
X101226190Y-113821428D02*
X100988095Y-113988095D01*
X101226190Y-114107142D02*
X100726190Y-114107142D01*
X100726190Y-113916666D01*
X100750000Y-113869047D01*
X100773809Y-113845238D01*
X100821428Y-113821428D01*
X100892857Y-113821428D01*
X100940476Y-113845238D01*
X100964285Y-113869047D01*
X100988095Y-113916666D01*
X100988095Y-114107142D01*
X101226190Y-113345238D02*
X101226190Y-113630952D01*
X101226190Y-113488095D02*
X100726190Y-113488095D01*
X100797619Y-113535714D01*
X100845238Y-113583333D01*
X100869047Y-113630952D01*
X100773809Y-113154761D02*
X100750000Y-113130952D01*
X100726190Y-113083333D01*
X100726190Y-112964285D01*
X100750000Y-112916666D01*
X100773809Y-112892857D01*
X100821428Y-112869047D01*
X100869047Y-112869047D01*
X100940476Y-112892857D01*
X101226190Y-113178571D01*
X101226190Y-112869047D01*
%TO.C,C4*%
X91428571Y-105533333D02*
X91452380Y-105557142D01*
X91476190Y-105628571D01*
X91476190Y-105676190D01*
X91452380Y-105747619D01*
X91404761Y-105795238D01*
X91357142Y-105819047D01*
X91261904Y-105842857D01*
X91190476Y-105842857D01*
X91095238Y-105819047D01*
X91047619Y-105795238D01*
X91000000Y-105747619D01*
X90976190Y-105676190D01*
X90976190Y-105628571D01*
X91000000Y-105557142D01*
X91023809Y-105533333D01*
X91142857Y-105104761D02*
X91476190Y-105104761D01*
X90952380Y-105223809D02*
X91309523Y-105342857D01*
X91309523Y-105033333D01*
%TO.C,C6*%
D12*
X100522380Y-125547619D02*
X100522380Y-126119047D01*
X100522380Y-125833333D02*
X99522380Y-125833333D01*
X99665238Y-125928571D01*
X99760476Y-126023809D01*
X99808095Y-126119047D01*
X99522380Y-124928571D02*
X99522380Y-124833333D01*
X99570000Y-124738095D01*
X99617619Y-124690476D01*
X99712857Y-124642857D01*
X99903333Y-124595238D01*
X100141428Y-124595238D01*
X100331904Y-124642857D01*
X100427142Y-124690476D01*
X100474761Y-124738095D01*
X100522380Y-124833333D01*
X100522380Y-124928571D01*
X100474761Y-125023809D01*
X100427142Y-125071428D01*
X100331904Y-125119047D01*
X100141428Y-125166666D01*
X99903333Y-125166666D01*
X99712857Y-125119047D01*
X99617619Y-125071428D01*
X99570000Y-125023809D01*
X99522380Y-124928571D01*
X99522380Y-123976190D02*
X99522380Y-123880952D01*
X99570000Y-123785714D01*
X99617619Y-123738095D01*
X99712857Y-123690476D01*
X99903333Y-123642857D01*
X100141428Y-123642857D01*
X100331904Y-123690476D01*
X100427142Y-123738095D01*
X100474761Y-123785714D01*
X100522380Y-123880952D01*
X100522380Y-123976190D01*
X100474761Y-124071428D01*
X100427142Y-124119047D01*
X100331904Y-124166666D01*
X100141428Y-124214285D01*
X99903333Y-124214285D01*
X99712857Y-124166666D01*
X99617619Y-124119047D01*
X99570000Y-124071428D01*
X99522380Y-123976190D01*
X99855714Y-122785714D02*
X100522380Y-122785714D01*
X99855714Y-123214285D02*
X100379523Y-123214285D01*
X100474761Y-123166666D01*
X100522380Y-123071428D01*
X100522380Y-122928571D01*
X100474761Y-122833333D01*
X100427142Y-122785714D01*
X99998571Y-121976190D02*
X99998571Y-122309523D01*
X100522380Y-122309523D02*
X99522380Y-122309523D01*
X99522380Y-121833333D01*
D13*
X101928571Y-124083333D02*
X101952380Y-124107142D01*
X101976190Y-124178571D01*
X101976190Y-124226190D01*
X101952380Y-124297619D01*
X101904761Y-124345238D01*
X101857142Y-124369047D01*
X101761904Y-124392857D01*
X101690476Y-124392857D01*
X101595238Y-124369047D01*
X101547619Y-124345238D01*
X101500000Y-124297619D01*
X101476190Y-124226190D01*
X101476190Y-124178571D01*
X101500000Y-124107142D01*
X101523809Y-124083333D01*
X101476190Y-123654761D02*
X101476190Y-123750000D01*
X101500000Y-123797619D01*
X101523809Y-123821428D01*
X101595238Y-123869047D01*
X101690476Y-123892857D01*
X101880952Y-123892857D01*
X101928571Y-123869047D01*
X101952380Y-123845238D01*
X101976190Y-123797619D01*
X101976190Y-123702380D01*
X101952380Y-123654761D01*
X101928571Y-123630952D01*
X101880952Y-123607142D01*
X101761904Y-123607142D01*
X101714285Y-123630952D01*
X101690476Y-123654761D01*
X101666666Y-123702380D01*
X101666666Y-123797619D01*
X101690476Y-123845238D01*
X101714285Y-123869047D01*
X101761904Y-123892857D01*
%TO.C,R20*%
D12*
X89852380Y-120464285D02*
X89852380Y-121035714D01*
X89852380Y-120750000D02*
X88852380Y-120750000D01*
X88995238Y-120845238D01*
X89090476Y-120940476D01*
X89138095Y-121035714D01*
X89852380Y-120035714D02*
X88852380Y-120035714D01*
X89852380Y-119464285D02*
X89280952Y-119892857D01*
X88852380Y-119464285D02*
X89423809Y-120035714D01*
D13*
X87976190Y-120571428D02*
X87738095Y-120738095D01*
X87976190Y-120857142D02*
X87476190Y-120857142D01*
X87476190Y-120666666D01*
X87500000Y-120619047D01*
X87523809Y-120595238D01*
X87571428Y-120571428D01*
X87642857Y-120571428D01*
X87690476Y-120595238D01*
X87714285Y-120619047D01*
X87738095Y-120666666D01*
X87738095Y-120857142D01*
X87523809Y-120380952D02*
X87500000Y-120357142D01*
X87476190Y-120309523D01*
X87476190Y-120190476D01*
X87500000Y-120142857D01*
X87523809Y-120119047D01*
X87571428Y-120095238D01*
X87619047Y-120095238D01*
X87690476Y-120119047D01*
X87976190Y-120404761D01*
X87976190Y-120095238D01*
X87476190Y-119785714D02*
X87476190Y-119738095D01*
X87500000Y-119690476D01*
X87523809Y-119666666D01*
X87571428Y-119642857D01*
X87666666Y-119619047D01*
X87785714Y-119619047D01*
X87880952Y-119642857D01*
X87928571Y-119666666D01*
X87952380Y-119690476D01*
X87976190Y-119738095D01*
X87976190Y-119785714D01*
X87952380Y-119833333D01*
X87928571Y-119857142D01*
X87880952Y-119880952D01*
X87785714Y-119904761D01*
X87666666Y-119904761D01*
X87571428Y-119880952D01*
X87523809Y-119857142D01*
X87500000Y-119833333D01*
X87476190Y-119785714D01*
%TO.C,FID1*%
D15*
X82785714Y-106485714D02*
X82719047Y-106485714D01*
X82719047Y-106590476D02*
X82719047Y-106390476D01*
X82814285Y-106390476D01*
X82890476Y-106590476D02*
X82890476Y-106390476D01*
X82985714Y-106590476D02*
X82985714Y-106390476D01*
X83033333Y-106390476D01*
X83061904Y-106400000D01*
X83080952Y-106419047D01*
X83090476Y-106438095D01*
X83100000Y-106476190D01*
X83100000Y-106504761D01*
X83090476Y-106542857D01*
X83080952Y-106561904D01*
X83061904Y-106580952D01*
X83033333Y-106590476D01*
X82985714Y-106590476D01*
X83290476Y-106590476D02*
X83176190Y-106590476D01*
X83233333Y-106590476D02*
X83233333Y-106390476D01*
X83214285Y-106419047D01*
X83195238Y-106438095D01*
X83176190Y-106447619D01*
%TO.C,R11*%
D13*
X106516071Y-100976190D02*
X106349404Y-100738095D01*
X106230357Y-100976190D02*
X106230357Y-100476190D01*
X106420833Y-100476190D01*
X106468452Y-100500000D01*
X106492261Y-100523809D01*
X106516071Y-100571428D01*
X106516071Y-100642857D01*
X106492261Y-100690476D01*
X106468452Y-100714285D01*
X106420833Y-100738095D01*
X106230357Y-100738095D01*
X106992261Y-100976190D02*
X106706547Y-100976190D01*
X106849404Y-100976190D02*
X106849404Y-100476190D01*
X106801785Y-100547619D01*
X106754166Y-100595238D01*
X106706547Y-100619047D01*
X107468452Y-100976190D02*
X107182738Y-100976190D01*
X107325595Y-100976190D02*
X107325595Y-100476190D01*
X107277976Y-100547619D01*
X107230357Y-100595238D01*
X107182738Y-100619047D01*
%TO.C,LED2*%
D12*
X106600000Y-125666666D02*
X106552380Y-125761904D01*
X106552380Y-125904761D01*
X106600000Y-126047619D01*
X106695238Y-126142857D01*
X106790476Y-126190476D01*
X106980952Y-126238095D01*
X107123809Y-126238095D01*
X107314285Y-126190476D01*
X107409523Y-126142857D01*
X107504761Y-126047619D01*
X107552380Y-125904761D01*
X107552380Y-125809523D01*
X107504761Y-125666666D01*
X107457142Y-125619047D01*
X107123809Y-125619047D01*
X107123809Y-125809523D01*
X107552380Y-124619047D02*
X107076190Y-124952380D01*
X107552380Y-125190476D02*
X106552380Y-125190476D01*
X106552380Y-124809523D01*
X106600000Y-124714285D01*
X106647619Y-124666666D01*
X106742857Y-124619047D01*
X106885714Y-124619047D01*
X106980952Y-124666666D01*
X107028571Y-124714285D01*
X107076190Y-124809523D01*
X107076190Y-125190476D01*
X107028571Y-124190476D02*
X107028571Y-123857142D01*
X107552380Y-123714285D02*
X107552380Y-124190476D01*
X106552380Y-124190476D01*
X106552380Y-123714285D01*
X107028571Y-123285714D02*
X107028571Y-122952380D01*
X107552380Y-122809523D02*
X107552380Y-123285714D01*
X106552380Y-123285714D01*
X106552380Y-122809523D01*
X107552380Y-122380952D02*
X106552380Y-122380952D01*
X107552380Y-121809523D01*
X106552380Y-121809523D01*
D13*
X108976190Y-124559523D02*
X108976190Y-124797619D01*
X108476190Y-124797619D01*
X108714285Y-124392857D02*
X108714285Y-124226190D01*
X108976190Y-124154761D02*
X108976190Y-124392857D01*
X108476190Y-124392857D01*
X108476190Y-124154761D01*
X108976190Y-123940476D02*
X108476190Y-123940476D01*
X108476190Y-123821428D01*
X108500000Y-123750000D01*
X108547619Y-123702380D01*
X108595238Y-123678571D01*
X108690476Y-123654761D01*
X108761904Y-123654761D01*
X108857142Y-123678571D01*
X108904761Y-123702380D01*
X108952380Y-123750000D01*
X108976190Y-123821428D01*
X108976190Y-123940476D01*
X108523809Y-123464285D02*
X108500000Y-123440476D01*
X108476190Y-123392857D01*
X108476190Y-123273809D01*
X108500000Y-123226190D01*
X108523809Y-123202380D01*
X108571428Y-123178571D01*
X108619047Y-123178571D01*
X108690476Y-123202380D01*
X108976190Y-123488095D01*
X108976190Y-123178571D01*
%TO.C,FID2*%
D15*
X84035714Y-124985714D02*
X83969047Y-124985714D01*
X83969047Y-125090476D02*
X83969047Y-124890476D01*
X84064285Y-124890476D01*
X84140476Y-125090476D02*
X84140476Y-124890476D01*
X84235714Y-125090476D02*
X84235714Y-124890476D01*
X84283333Y-124890476D01*
X84311904Y-124900000D01*
X84330952Y-124919047D01*
X84340476Y-124938095D01*
X84350000Y-124976190D01*
X84350000Y-125004761D01*
X84340476Y-125042857D01*
X84330952Y-125061904D01*
X84311904Y-125080952D01*
X84283333Y-125090476D01*
X84235714Y-125090476D01*
X84426190Y-124909523D02*
X84435714Y-124900000D01*
X84454761Y-124890476D01*
X84502380Y-124890476D01*
X84521428Y-124900000D01*
X84530952Y-124909523D01*
X84540476Y-124928571D01*
X84540476Y-124947619D01*
X84530952Y-124976190D01*
X84416666Y-125090476D01*
X84540476Y-125090476D01*
%TO.C,C1*%
D13*
X88178571Y-105583333D02*
X88202380Y-105607142D01*
X88226190Y-105678571D01*
X88226190Y-105726190D01*
X88202380Y-105797619D01*
X88154761Y-105845238D01*
X88107142Y-105869047D01*
X88011904Y-105892857D01*
X87940476Y-105892857D01*
X87845238Y-105869047D01*
X87797619Y-105845238D01*
X87750000Y-105797619D01*
X87726190Y-105726190D01*
X87726190Y-105678571D01*
X87750000Y-105607142D01*
X87773809Y-105583333D01*
X88226190Y-105107142D02*
X88226190Y-105392857D01*
X88226190Y-105250000D02*
X87726190Y-105250000D01*
X87797619Y-105297619D01*
X87845238Y-105345238D01*
X87869047Y-105392857D01*
%TO.C,C2*%
D12*
X95367619Y-121630952D02*
X95320000Y-121583333D01*
X95272380Y-121488095D01*
X95272380Y-121250000D01*
X95320000Y-121154761D01*
X95367619Y-121107142D01*
X95462857Y-121059523D01*
X95558095Y-121059523D01*
X95700952Y-121107142D01*
X96272380Y-121678571D01*
X96272380Y-121059523D01*
X96177142Y-120630952D02*
X96224761Y-120583333D01*
X96272380Y-120630952D01*
X96224761Y-120678571D01*
X96177142Y-120630952D01*
X96272380Y-120630952D01*
X95367619Y-120202380D02*
X95320000Y-120154761D01*
X95272380Y-120059523D01*
X95272380Y-119821428D01*
X95320000Y-119726190D01*
X95367619Y-119678571D01*
X95462857Y-119630952D01*
X95558095Y-119630952D01*
X95700952Y-119678571D01*
X96272380Y-120250000D01*
X96272380Y-119630952D01*
X95605714Y-118773809D02*
X96272380Y-118773809D01*
X95605714Y-119202380D02*
X96129523Y-119202380D01*
X96224761Y-119154761D01*
X96272380Y-119059523D01*
X96272380Y-118916666D01*
X96224761Y-118821428D01*
X96177142Y-118773809D01*
X95748571Y-117964285D02*
X95748571Y-118297619D01*
X96272380Y-118297619D02*
X95272380Y-118297619D01*
X95272380Y-117821428D01*
D13*
X97678571Y-119833333D02*
X97702380Y-119857142D01*
X97726190Y-119928571D01*
X97726190Y-119976190D01*
X97702380Y-120047619D01*
X97654761Y-120095238D01*
X97607142Y-120119047D01*
X97511904Y-120142857D01*
X97440476Y-120142857D01*
X97345238Y-120119047D01*
X97297619Y-120095238D01*
X97250000Y-120047619D01*
X97226190Y-119976190D01*
X97226190Y-119928571D01*
X97250000Y-119857142D01*
X97273809Y-119833333D01*
X97273809Y-119642857D02*
X97250000Y-119619047D01*
X97226190Y-119571428D01*
X97226190Y-119452380D01*
X97250000Y-119404761D01*
X97273809Y-119380952D01*
X97321428Y-119357142D01*
X97369047Y-119357142D01*
X97440476Y-119380952D01*
X97726190Y-119666666D01*
X97726190Y-119357142D01*
%TO.C,CN1*%
D12*
X110702380Y-115809523D02*
X111511904Y-115809523D01*
X111607142Y-115761904D01*
X111654761Y-115714285D01*
X111702380Y-115619047D01*
X111702380Y-115428571D01*
X111654761Y-115333333D01*
X111607142Y-115285714D01*
X111511904Y-115238095D01*
X110702380Y-115238095D01*
X111654761Y-114809523D02*
X111702380Y-114666666D01*
X111702380Y-114428571D01*
X111654761Y-114333333D01*
X111607142Y-114285714D01*
X111511904Y-114238095D01*
X111416666Y-114238095D01*
X111321428Y-114285714D01*
X111273809Y-114333333D01*
X111226190Y-114428571D01*
X111178571Y-114619047D01*
X111130952Y-114714285D01*
X111083333Y-114761904D01*
X110988095Y-114809523D01*
X110892857Y-114809523D01*
X110797619Y-114761904D01*
X110750000Y-114714285D01*
X110702380Y-114619047D01*
X110702380Y-114380952D01*
X110750000Y-114238095D01*
X111178571Y-113476190D02*
X111226190Y-113333333D01*
X111273809Y-113285714D01*
X111369047Y-113238095D01*
X111511904Y-113238095D01*
X111607142Y-113285714D01*
X111654761Y-113333333D01*
X111702380Y-113428571D01*
X111702380Y-113809523D01*
X110702380Y-113809523D01*
X110702380Y-113476190D01*
X110750000Y-113380952D01*
X110797619Y-113333333D01*
X110892857Y-113285714D01*
X110988095Y-113285714D01*
X111083333Y-113333333D01*
X111130952Y-113380952D01*
X111178571Y-113476190D01*
X111178571Y-113809523D01*
X111416666Y-112857142D02*
X111416666Y-112380952D01*
X111702380Y-112952380D02*
X110702380Y-112619047D01*
X111702380Y-112285714D01*
X111797619Y-112190476D02*
X111797619Y-111428571D01*
X111178571Y-110857142D02*
X111178571Y-111190476D01*
X111702380Y-111190476D02*
X110702380Y-111190476D01*
X110702380Y-110714285D01*
X111178571Y-110333333D02*
X111178571Y-110000000D01*
X111702380Y-109857142D02*
X111702380Y-110333333D01*
X110702380Y-110333333D01*
X110702380Y-109857142D01*
X111702380Y-109428571D02*
X110702380Y-109428571D01*
X111416666Y-109095238D01*
X110702380Y-108761904D01*
X111702380Y-108761904D01*
X111416666Y-108333333D02*
X111416666Y-107857142D01*
X111702380Y-108428571D02*
X110702380Y-108095238D01*
X111702380Y-107761904D01*
X111702380Y-106952380D02*
X111702380Y-107428571D01*
X110702380Y-107428571D01*
X111178571Y-106619047D02*
X111178571Y-106285714D01*
X111702380Y-106142857D02*
X111702380Y-106619047D01*
X110702380Y-106619047D01*
X110702380Y-106142857D01*
X109607142Y-111690476D02*
X109654761Y-111738095D01*
X109702380Y-111880952D01*
X109702380Y-111976190D01*
X109654761Y-112119047D01*
X109559523Y-112214285D01*
X109464285Y-112261904D01*
X109273809Y-112309523D01*
X109130952Y-112309523D01*
X108940476Y-112261904D01*
X108845238Y-112214285D01*
X108750000Y-112119047D01*
X108702380Y-111976190D01*
X108702380Y-111880952D01*
X108750000Y-111738095D01*
X108797619Y-111690476D01*
X109702380Y-111261904D02*
X108702380Y-111261904D01*
X109702380Y-110690476D01*
X108702380Y-110690476D01*
X109702380Y-109690476D02*
X109702380Y-110261904D01*
X109702380Y-109976190D02*
X108702380Y-109976190D01*
X108845238Y-110071428D01*
X108940476Y-110166666D01*
X108988095Y-110261904D01*
%TD*%
M02*
